<?xml version="1.0" encoding="UTF-8"?><svg id="Layer_2" xmlns="http://www.w3.org/2000/svg" xmlns:xlink="http://www.w3.org/1999/xlink" viewBox="0 0 40.26 43.98"><defs><style>.cls-1{fill:none;}.cls-2{clip-path:url(#clippath);}.cls-3{fill:#e2786c;}.cls-4{fill:#243666;}</style><clipPath id="clippath"><rect class="cls-1" width="40.26" height="43.98"/></clipPath></defs><g id="Layer_1-2"><g class="cls-2"><path class="cls-4" d="M34.99,.96c-4.67-2.29-10.31-.36-12.59,4.31L10.21,30.43c-2.29,4.67-.36,10.3,4.31,12.59,1.33,.65,2.74,.96,4.14,.96,3.48,0,6.82-1.94,8.46-5.27l12.18-25.16c2.29-4.67,.36-10.3-4.31-12.59"/><path class="cls-3" d="M17.61,14.56c-3.19-1.57-7.05-.25-8.61,2.94L.66,34.71c-1.56,3.19-.25,7.05,2.95,8.61,.91,.45,1.88,.66,2.83,.66,2.38,0,4.66-1.32,5.78-3.6l8.33-17.21c1.57-3.19,.25-7.05-2.94-8.61"/></g></g></svg>