<?xml version="1.0" encoding="UTF-8"?><svg id="Layer_1" xmlns="http://www.w3.org/2000/svg" xmlns:xlink="http://www.w3.org/1999/xlink" viewBox="0 0 250 252.43"><defs><style>.cls-1,.cls-2,.cls-3{fill:none;}.cls-2,.cls-3{stroke:#fff;stroke-width:2.2px;}.cls-4{clip-path:url(#clippath);}.cls-5{fill:#f37167;}.cls-6{fill:#63c29d;}.cls-7{fill:#1f376a;}.cls-3{stroke-miterlimit:10;}</style><clipPath id="clippath"><rect class="cls-1" width="250" height="252.43"/></clipPath></defs><g class="cls-4"><path class="cls-6" d="M7.89,182.25c-3.16,4.91-4.24,8.67-4.6,9.64-7.93,21.25,.06,45.19,20.58,55.43,19.84,9.88,43.63,3.11,55.46-15,16.93-25.91,51.55-34.11,74.35-16.41-22.37-21.95-43.57-36.86-56.57-42.74-30.49-13.8-61.84-13.55-81.53,1.65-2.81,2.17-5.73,4.39-7.69,7.43"/><path class="cls-3" d="M7.89,182.25c-3.16,4.91-4.24,8.67-4.6,9.64-7.93,21.25,.06,45.19,20.58,55.43,19.84,9.88,43.63,3.11,55.46-15,16.93-25.91,51.55-34.11,74.35-16.41-22.37-21.95-43.57-36.86-56.57-42.74-30.49-13.8-61.84-13.55-81.53,1.65-2.81,2.17-5.73,4.39-7.69,7.43Z"/><path class="cls-5" d="M167.21,31.72c-1.71-4.68-3.68-7.56-3.68-7.56-15.78-31.65-61.44-32.07-77.42,0,0,0-27.75,55.85-37.16,74.86,.15-.29,3.18-6.04,13.62-9.99,.03-.01,.06-.02,.08-.03,.32-.12,.66-.24,1-.35,.23-.08,.44-.16,.67-.24,.08-.03,.17-.05,.26-.08,6.31-2.05,14.99-3.41,26.83-2.82,9.85,.49,35.08,.44,35.08,.44,15.37-.92,25.88-7.19,34.78-18.07,10.14-12.43,6.91-27.95,5.94-36.15"/><path class="cls-2" d="M167.21,31.72c-1.71-4.68-3.68-7.56-3.68-7.56-15.78-31.65-61.44-32.07-77.42,0,0,0-27.75,55.85-37.16,74.86,.15-.29,3.18-6.04,13.62-9.99,.03-.01,.06-.02,.08-.03,.32-.12,.66-.24,1-.35,.23-.08,.44-.16,.67-.24,.08-.03,.17-.05,.26-.08,6.31-2.05,14.99-3.41,26.83-2.82,9.85,.49,35.08,.44,35.08,.44,15.37-.92,25.88-7.19,34.78-18.07,10.14-12.43,6.91-27.95,5.94-36.15Z"/><path class="cls-7" d="M246.36,191.89c-2.74-6.5-63.2-128.09-79.15-160.17,.97,8.2,4.2,23.72-5.94,36.16-8.89,10.89-19.4,17.15-34.78,18.07,0,0-25.23,.05-35.08-.44-34.88-1.74-42.4,13.43-42.47,13.54C32.85,131.51,15.88,165.82,7.88,182.25h0c18.4-22.27,54.37-24.86,89.22-9.08,12.85,5.82,33.71,20.46,55.78,41.98,.6,.45,10.9,9.89,17.43,17.17,17.56,19.55,35.63,24.88,55.46,15,20.53-10.23,29.35-34.58,20.58-55.43"/><path class="cls-3" d="M246.36,191.89c-2.74-6.5-63.2-128.09-79.15-160.17,.97,8.2,4.2,23.72-5.94,36.16-8.89,10.89-19.4,17.15-34.78,18.07,0,0-25.23,.05-35.08-.44-34.88-1.74-42.4,13.43-42.47,13.54C32.85,131.51,15.88,165.82,7.88,182.25h0c18.4-22.27,54.37-24.86,89.22-9.08,12.85,5.82,33.71,20.46,55.78,41.98,.6,.45,10.9,9.89,17.43,17.17,17.56,19.55,35.63,24.88,55.46,15,20.53-10.23,29.35-34.58,20.58-55.43Z"/></g></svg>