<?xml version="1.0" encoding="utf-8"?>
<!-- Generator: Adobe Illustrator 26.0.2, SVG Export Plug-In . SVG Version: 6.00 Build 0)  -->
<svg version="1.1" id="Layer_1" xmlns="http://www.w3.org/2000/svg" xmlns:xlink="http://www.w3.org/1999/xlink" x="0px" y="0px"
	 viewBox="0 0 330 330" style="enable-background:new 0 0 330 330;" xml:space="preserve">
<style type="text/css">
	.st0{fill:#FFFFFF;}
</style>
<g>
	<path class="st0" d="M175.7,188L117,258c-3.8,5-8.6,7.5-14.3,7.5c-5.1,0-9.4-1.8-12.8-5.3c-3.4-3.6-5.1-7.9-5.1-13
		c0-4.6,1.1-8.2,3.4-10.9l64.6-77L93,88.4c-2.7-3.1-4.1-6.7-4.1-10.7c0-4.7,1.7-8.9,5-12.7c3.3-3.8,7.6-5.7,12.9-5.7
		c6,0,10.8,2.2,14.5,6.7l54.2,65.3l55.7-65.8c3.4-4.1,7.7-6.2,12.8-6.2c4.6,0,8.7,1.6,12.4,4.8s5.6,7.3,5.6,12.3
		c0,4.8-0.8,8.2-2.3,10l-60.7,73l63.7,76.8c2.4,2.7,3.6,6.1,3.6,10.1c0,5.5-1.8,10-5.4,13.7c-3.6,3.7-7.8,5.5-12.5,5.5
		c-5.6,0-10.4-2.5-14.5-7.5L175.7,188z"/>
</g>
</svg>
