<?xml version="1.0" encoding="utf-8"?>
<!-- Generator: Adobe Illustrator 26.0.2, SVG Export Plug-In . SVG Version: 6.00 Build 0)  -->
<svg version="1.1" id="Layer_1" xmlns="http://www.w3.org/2000/svg" xmlns:xlink="http://www.w3.org/1999/xlink" x="0px" y="0px"
	 viewBox="0 0 470.2 497" style="enable-background:new 0 0 470.2 497;" xml:space="preserve">
<style type="text/css">
	.st0{fill:#20376B;}
</style>
<path class="st0" d="M0,30.4c0,0,56.7-4.3,75-8.1C93.6,18.5,147.7,0,147.7,0s6.8,24.9,10.6,32.9c19.1,39.4,61.5,117,80.6,154.8
	c20.5,40.7,72.3,153.6,66.1,153.9c-0.4,0.9,38.8-106.3,70.8-164c33.8-61.1,97-164.8,94.4-157.3c0.4-5-74.7,151.9-94,228.2
	c-10,39.5-25.1,143.1-43.7,179.4c-13.2,25.8-95.6,67.6-97.4,69.1c0,0-10.6-53.4-16.9-67.6C177.8,338.3-1.3,36.6,0,30.4 M85.5,134
	l11.3,20.2l73.6-7.9l-12.8-23l-44.4,9.1l31.3-32.6l-13.2-23.7L85.5,134L85.5,134z M209.1,215.6l-12.7-22.8l-28.6,16
	c-5.4,3-9.7,4.2-12.7,3.7c-3.1-0.6-5.4-2.2-6.9-4.9c-1.4-2.5-1.7-4.9-0.9-7.1s3.1-4.4,6.8-6.5l32.7-18.3l-12.8-22.9l-37.9,21.1
	c-7.8,4.4-12.6,9.4-14.4,15c-1.8,5.7-0.9,11.6,2.6,17.9c2.6,4.7,5.7,8.2,9.2,10.5c3.5,2.3,8.1,3.9,13.8,4.9l-9.6,5.4l11.9,21.3
	L209.1,215.6L209.1,215.6z M157.7,263.4l12.8,22.9l82.1-45.9l-12.8-22.9L157.7,263.4L157.7,263.4z M237.7,299.7
	c2.2,1.2,4.4,3.7,6.5,7.4c1.6,2.9,2.2,5.3,1.7,7c-0.5,1.8-2.1,3.5-4.9,5c-2.7-2.2-5.1-4.4-7.2-6.5c-2.1-2.2-6.4-7-12.9-14.6
	c-5.4-6.3-10.3-10-14.7-11c-4.4-1-8.9-0.3-13.4,2.2c-4.8,2.7-7.8,6.8-9.1,12.3c-1.2,5.5,0.1,11.8,4.1,18.9c3,5.3,6.4,9.6,10.3,12.7
	c2.9,2.3,6.6,4.1,11.1,5.5c-1.6,1.2-2.7,2.2-3.3,2.9c-0.7,0.7-1.5,1.9-2.6,3.6l11.9,21.4c1.8-2.6,3.4-4.5,4.8-5.7
	c1.4-1.2,3.5-2.6,6.3-4.2l26.3-14.7c2.8-1.6,5.4-3.8,7.9-6.6s4-5.7,4.6-8.6c0.9-4.1,0.6-8.5-1-13s-4.2-10.3-8-17.1
	c-2.4-4.3-4.9-8-7.6-11.3c-2.7-3.3-5.2-5.7-7.5-7.1c-3.2-2-6.4-3.2-9.4-3.5c-3.1-0.3-6.7,0.2-11,1.5l9.9,23.1
	C233.5,298.6,235.9,298.8,237.7,299.7L237.7,299.7z M225.9,327.7c-2.8,1.6-5.4,2.4-7.7,2.5c-2.3,0.1-4.7-0.6-7.1-2.1
	c-2.5-1.5-4.4-3.5-5.8-6.1c-1.4-2.4-1.8-4.6-1.4-6.5c0.4-1.9,1.6-3.3,3.4-4.3c1.6-0.9,3.3-1,5.3-0.4c1.9,0.6,4.7,2.8,8.6,6.8
	c2.8,2.9,5.6,5.6,8.4,8.1L225.9,327.7L225.9,327.7z"/>
</svg>
