<?xml version="1.0" encoding="UTF-8"?><svg id="Layer_1" xmlns="http://www.w3.org/2000/svg" xmlns:xlink="http://www.w3.org/1999/xlink" viewBox="0 0 100 100"><defs><style>.cls-1{fill:none;}.cls-2{clip-path:url(#clippath);}.cls-3{fill:#231f20;}</style><clipPath id="clippath"><rect class="cls-1" y=".28" width="96.77" height="99.59"/></clipPath></defs><g class="cls-2"><path class="cls-3" d="M65.42,18.71l-11.17-11.17v11.17h11.17Zm1.1,69.48c.36,.02,.67,.04,.99,.04,2.04,0,4.08-.02,6.12,0,2.58,.03,4.47,1.45,4.98,3.78,.15,.65,.08,1.35,.14,2.03,.05,.61-.26,1.38,.52,1.73,.85,.37,1.21-.42,1.66-.87,3.43-3.4,6.84-6.82,10.25-10.23,.25-.25,.49-.51,.83-.87-1.01-.97-2-1.9-2.96-2.85-2.87-2.85-5.72-5.73-8.61-8.57-.26-.25-.82-.51-1.06-.39-.31,.16-.53,.66-.61,1.05-.1,.53-.02,1.1-.03,1.65-.08,2.7-1.94,4.64-4.62,4.79-.84,.05-1.68,.02-2.53,.03-1.67,0-3.35,0-5.07,0v8.67Zm2.08,4.16c-.16-.05-.22-.09-.28-.09-1.04,0-2.07-.01-3.11-.02-2.01-.01-2.71-.69-2.71-2.67,0-3.79,0-7.58,0-11.37,0-1.96,.68-2.64,2.62-2.64,1.15,0,2.31,0,3.44,0V22.7h-1.12c-4.83,0-9.66,0-14.48,0-2.14,0-2.77-.64-2.77-2.78,0-4.83,0-9.66,0-14.49v-1.09H4.09V95.84H68.6v-3.49Zm4.03-16.85c2.04,.16,2.24,.02,2.17-1.83-.09-2.34,.59-4.23,2.81-5.3,1.89-.91,3.95-.49,5.6,1.14,2.63,2.6,5.23,5.22,7.84,7.83,1.6,1.6,3.22,3.2,4.81,4.82,1.2,1.21,1.2,2.24,0,3.44-4.21,4.22-8.43,8.44-12.65,12.65-1.39,1.39-3.04,1.97-4.97,1.39-1.76-.52-2.88-1.71-3.3-3.49-.15-.65-.13-1.35-.14-2.03-.02-1.86-.15-1.99-2.19-1.82,0,1.07,0,2.15,0,3.24,0,.84,.02,1.69-.07,2.52-.12,1.07-.78,1.67-1.85,1.79-.29,.03-.58,.02-.87,.02H2.83C.65,99.87,0,99.22,0,97.03V3.1C0,.96,.66,.3,2.78,.3c16.21,0,32.41,0,48.62-.02,1.12,0,1.97,.35,2.76,1.14,5.76,5.8,11.53,11.57,17.33,17.33,.83,.82,1.16,1.71,1.16,2.85-.02,17.5-.01,35-.01,52.51v1.39Z"/><path class="cls-3" d="M36.26,47.92c-7.13,0-14.25,0-21.38,0-.48,0-.98-.03-1.44-.15-.84-.22-1.42-1.05-1.4-1.88,.02-.85,.62-1.63,1.47-1.83,.41-.09,.83-.13,1.25-.13,14.39,0,28.77,0,43.16,0h.1c1.64,.02,2.59,.74,2.6,1.99,.01,1.24-.96,2.01-2.58,2.01-7.26,0-14.51,0-21.77,0"/><path class="cls-3" d="M36.35,57.04h21.48c1.83,0,2.78,.68,2.78,1.98,0,1.29-.97,1.97-2.79,1.97-14.35,0-28.7,0-43.05,0-1.75,0-2.7-.67-2.72-1.93-.03-1.3,.93-2.01,2.74-2.01h21.57"/><path class="cls-3" d="M36.34,74.07c-7.13,0-14.25,0-21.38,0-.36,0-.72,0-1.07-.04-1.08-.11-1.83-.89-1.86-1.89-.02-.97,.73-1.83,1.77-2,.29-.04,.58-.03,.87-.03,14.42,0,28.83,0,43.25,0,.23,0,.46,0,.68,0,1.18,.1,2.01,.93,2,1.98,0,1.06-.82,1.86-2.01,1.95-.32,.02-.65,.02-.97,.02h-21.28"/><path class="cls-3" d="M30.45,30.83c5.22,0,10.43,0,15.65,0,.39,0,.78,.01,1.16,.1,.97,.22,1.57,1.03,1.54,1.97-.04,.95-.7,1.68-1.68,1.84-.35,.05-.71,.07-1.06,.07-10.4,0-20.8,0-31.2,0-1.84,0-2.79-.67-2.8-1.96-.01-1.31,.98-2.01,2.86-2.01h15.55"/><path class="cls-3" d="M56.5,30.84c.68,0,1.36-.03,2.04,0,1.23,.07,2.09,.92,2.07,2.01-.02,1.05-.83,1.88-2.03,1.93-1.42,.06-2.85,.06-4.26,0-1.21-.05-2.01-.88-2.02-1.93-.01-1.09,.84-1.93,2.08-2,.71-.04,1.42,0,2.13,0"/></g></svg>