<?xml version="1.0" encoding="UTF-8"?><svg id="Layer_2" xmlns="http://www.w3.org/2000/svg" xmlns:xlink="http://www.w3.org/1999/xlink" viewBox="0 0 47.85 47.85"><defs><style>.cls-1{fill:none;}.cls-2{clip-path:url(#clippath);}.cls-3{fill:#fff;}.cls-4{fill:#7bbf9d;}</style><clipPath id="clippath"><rect class="cls-1" width="47.85" height="47.85"/></clipPath></defs><g id="Layer_1-2"><g class="cls-2"><path class="cls-4" d="M23.92,47.85c13.21,0,23.92-10.71,23.92-23.92S37.14,0,23.92,0,0,10.71,0,23.92s10.71,23.92,23.92,23.92"/><path class="cls-3" d="M20.78,29c-1.28-1.31-2.43-2.53-3.63-3.71-.91-.9-1.93-.96-2.7-.21-.79,.76-.73,1.84,.19,2.78,1.53,1.55,3.07,3.08,4.61,4.62,1.53,1.53,2.48,1.46,3.71-.3,3.92-5.6,7.84-11.2,11.76-16.8,.18-.26,.38-.51,.52-.79,.44-.85,.21-1.8-.54-2.33-.77-.54-1.69-.43-2.36,.31-.26,.28-.47,.61-.69,.93-3.58,5.11-7.16,10.22-10.86,15.5"/><path class="cls-3" d="M20.78,29c3.7-5.29,7.28-10.4,10.86-15.5,.22-.32,.43-.64,.69-.93,.67-.74,1.59-.85,2.36-.31,.75,.53,.99,1.48,.54,2.33-.14,.28-.34,.53-.52,.79-3.92,5.6-7.84,11.2-11.76,16.8-1.23,1.76-2.17,1.83-3.71,.3-1.54-1.54-3.08-3.07-4.61-4.62-.92-.93-.99-2.01-.19-2.78,.78-.75,1.79-.69,2.7,.21,1.19,1.18,2.35,2.4,3.63,3.71"/></g></g></svg>