<?xml version="1.0" encoding="UTF-8"?><svg id="Layer_2" xmlns="http://www.w3.org/2000/svg" xmlns:xlink="http://www.w3.org/1999/xlink" viewBox="0 0 83.9 83.9"><defs><style>.cls-1,.cls-2{fill:none;}.cls-3{clip-path:url(#clippath);}.cls-4{fill:#f6cc46;}.cls-5{fill:#fff;}.cls-6{fill:#221f20;}.cls-2{stroke:#243666;stroke-width:2px;}</style><clipPath id="clippath"><rect class="cls-1" width="83.9" height="83.9"/></clipPath></defs><g id="Layer_1-2"><g class="cls-3"><path class="cls-5" d="M41.95,82.9c22.62,0,40.95-18.33,40.95-40.95S64.57,1,41.95,1,1,19.33,1,41.95s18.33,40.95,40.95,40.95"/><circle class="cls-2" cx="41.95" cy="41.95" r="40.95"/><path class="cls-6" d="M47.93,65.12h1.93s.08,0,.11,0c.85-.02,1.43-.56,1.45-1.34,.02-.82-.54-1.41-1.42-1.43-1.38-.02-2.76-.02-4.14,0-.86,.01-1.43,.58-1.43,1.36,0,.81,.58,1.39,1.45,1.4,.68,.01,1.36,0,2.04,0m14.91-20.13c0,1.72,0,3.44,0,5.16,0,.91,.44,1.3,1.35,1.24,1.53-.1,2.82-1.41,2.85-3.01,.05-2.27,.04-4.54,0-6.81-.03-1.58-1.28-2.89-2.78-3.02-.98-.09-1.42,.3-1.43,1.28,0,1.72,0,3.44,0,5.16m-43.08,.03c0-1.76,0-3.52,0-5.28,0-.85-.44-1.24-1.28-1.21-1.57,.06-2.9,1.41-2.92,3.06-.04,2.25-.03,4.5,0,6.75,.02,1.58,1.27,2.9,2.76,3.04,1.01,.09,1.44-.29,1.45-1.31,0-1.68,0-3.37,0-5.05m34.19,20.08c-.64,1.5-1.7,2.46-3.29,2.69-.76,.11-1.55,.05-2.32,.05-.87,0-1.74,.01-2.61,0-2.22-.05-3.96-1.8-4.02-4.03-.06-2.15,1.58-4.03,3.75-4.16,1.58-.09,3.18-.07,4.76-.02,1.66,.05,2.84,.9,3.58,2.39,.08,.15,.27,.34,.42,.34,1.55,0,3.11,.07,4.65-.09,2.59-.27,4.62-2.57,4.69-5.17,.03-.98,0-1.96,0-2.85-.63-.27-1.24-.44-1.76-.77-1.07-.68-1.67-1.7-1.67-2.99-.02-3.67-.03-7.34,0-11.01,.01-1.74,1.21-3.13,2.9-3.54,.15-.04,.29-.08,.43-.11-.27-9.72-8.4-20.17-20.94-20.85-12.87-.7-22.81,9.35-23.43,20.82,.17,.05,.34,.1,.52,.14,1.62,.4,2.83,1.8,2.85,3.47,.04,3.71,.06,7.42,0,11.13-.04,2.4-2.23,3.98-4.73,3.54-2.6-.46-4.62-2.41-4.81-5.09-.2-2.69-.14-5.41,0-8.1,.11-1.96,1.28-3.4,2.99-4.35,.3-.17,.41-.35,.44-.69,.99-10.77,6.46-18.33,16.57-22.13,14.26-5.36,30.07,3.75,32.91,18.72,.21,1.13,.31,2.28,.43,3.43,.03,.31,.11,.49,.4,.66,2.04,1.14,3.09,2.9,3.12,5.23,.03,2.16,.03,4.31,0,6.47-.03,2.31-1.07,4.06-3.07,5.2-.34,.19-.42,.4-.42,.76-.01,1.32,.08,2.67-.12,3.96-.61,4.04-4,6.91-8.08,6.97-1.38,.02-2.76,0-4.14,0"/><path class="cls-6" d="M35.3,51.79s.09,.05,.14,.07c.15-.14,.3-.27,.44-.41,1.6-1.59,3.2-3.16,4.78-4.77,.46-.46,.95-.68,1.61-.67,2.48,.02,4.95,.01,7.43,0,2.25,0,3.47-1.22,3.47-3.47,0-3.65,0-7.3,0-10.95,0-2.23-1.21-3.44-3.43-3.44-5.62,0-11.23,0-16.85,0-2.27,0-3.46,1.19-3.46,3.46,0,3.65,0,7.3,0,10.95,0,.24,0,.49,.03,.74,.15,1.36,1.14,2.43,2.49,2.64,.5,.08,1.02,.07,1.53,.07,1.41,0,1.82,.41,1.82,1.82,0,1.32,0,2.64,0,3.95m-2.73-2.84c-1.03-.33-2.02-.51-2.86-.96-2.02-1.09-3-2.88-3.01-5.17-.02-3.82-.03-7.64,0-11.47,.03-3.5,2.51-5.93,6.02-5.93,5.71,0,11.43,0,17.14,0,3.53,0,6,2.45,6.02,5.99,.02,3.78,.03,7.57,0,11.35-.03,3.53-2.51,5.97-6.04,5.98-2.27,0-4.54,.01-6.81,0-.42,0-.7,.13-.99,.42-1.53,1.55-3.08,3.07-4.63,4.6-.87,.86-1.9,1.1-3.03,.66-1.15-.44-1.74-1.35-1.81-2.58-.03-.47,0-.94,0-1.42,0-.54,0-1.09,0-1.47"/><path class="cls-5" d="M19.76,45.02c0,1.68,0,3.37,0,5.05,0,1.02-.44,1.4-1.45,1.31-1.49-.14-2.74-1.46-2.76-3.04-.03-2.25-.04-4.5,0-6.75,.03-1.65,1.36-2.99,2.93-3.06,.84-.03,1.27,.36,1.28,1.21,.01,1.76,0,3.52,0,5.28"/><path class="cls-5" d="M62.84,44.98c0-1.72,0-3.44,0-5.16,0-.98,.45-1.37,1.43-1.28,1.49,.13,2.75,1.45,2.78,3.02,.04,2.27,.04,4.54,0,6.81-.03,1.6-1.32,2.91-2.85,3.01-.92,.06-1.35-.32-1.35-1.24,0-1.72,0-3.44,0-5.16"/><path class="cls-5" d="M47.93,65.12c-.68,0-1.36,.01-2.04,0-.87-.02-1.46-.59-1.45-1.41,0-.78,.58-1.35,1.43-1.36,1.38-.02,2.76-.02,4.14,0,.88,.01,1.44,.61,1.42,1.43-.02,.78-.6,1.32-1.46,1.34-.04,0-.08,0-.11,0-.64,0-1.29,0-1.93,0"/><path class="cls-4" d="M49.93,37.28c0-1.1-.95-2.02-2.04-2-1.11,.02-1.99,.94-1.97,2.06,.02,1.09,.92,1.97,2,1.97,1.1,0,2.01-.93,2.01-2.03m-17.26,.03c0,1.1,.94,2.02,2.04,2,1.09-.02,1.97-.91,1.97-2,0-1.11-.9-2.03-2-2.03-1.1,0-2.01,.93-2.01,2.03m10.65-.03c-.01-1.1-.96-2.02-2.05-2-1.08,.02-1.98,.93-1.99,2,0,1.09,.92,2.03,2.02,2.03,1.1,0,2.03-.94,2.02-2.03m-8.01,14.51c0-1.32,0-2.63,0-3.95,0-1.41-.41-1.81-1.82-1.82-.51,0-1.03,0-1.53-.07-1.35-.21-2.34-1.28-2.49-2.64-.03-.24-.03-.49-.03-.74,0-3.65,0-7.3,0-10.95,0-2.27,1.2-3.46,3.46-3.46,5.62,0,11.23,0,16.85,0,2.22,0,3.43,1.21,3.43,3.44,0,3.65,0,7.3,0,10.95,0,2.26-1.22,3.47-3.47,3.47-2.48,0-4.96,.01-7.43-.01-.66,0-1.15,.21-1.6,.67-1.58,1.6-3.19,3.18-4.78,4.77-.14,.14-.3,.28-.44,.42-.05-.02-.09-.05-.14-.07"/><path class="cls-6" d="M43.32,37.28c.01,1.09-.92,2.03-2.02,2.03-1.1,0-2.03-.94-2.02-2.03,0-1.08,.9-1.98,1.99-2,1.09-.02,2.04,.9,2.05,2"/><path class="cls-6" d="M32.67,37.31c0-1.11,.9-2.03,2.01-2.03,1.1,0,2.01,.91,2,2.03,0,1.09-.88,1.98-1.97,2-1.1,.02-2.03-.9-2.04-2"/><path class="cls-6" d="M49.93,37.28c0,1.1-.9,2.03-2.01,2.03-1.08,0-1.98-.88-2.01-1.97-.02-1.12,.86-2.04,1.97-2.06,1.1-.02,2.03,.9,2.04,2"/></g></g></svg>