<?xml version="1.0" encoding="UTF-8"?><svg id="Layer_2" xmlns="http://www.w3.org/2000/svg" xmlns:xlink="http://www.w3.org/1999/xlink" viewBox="0 0 47.85 47.85"><defs><style>.cls-1{fill:none;}.cls-2{clip-path:url(#clippath);}.cls-3{fill:#fff;}.cls-4{fill:#c03733;}</style><clipPath id="clippath"><rect class="cls-1" width="47.85" height="47.85"/></clipPath></defs><g id="Layer_1-2"><g class="cls-2"><path class="cls-4" d="M23.92,47.85c13.21,0,23.92-10.71,23.92-23.92S37.14,0,23.92,0,0,10.71,0,23.92s10.71,23.92,23.92,23.92"/><path class="cls-3" d="M21.5,23.33c-2.47,2.46-4.84,4.82-7.2,7.19-.94,.95-1.03,1.9-.28,2.68,.77,.8,1.77,.73,2.75-.24,1.99-1.98,3.98-3.96,5.95-5.96,.4-.4,.72-.87,1.11-1.35,2.45,2.46,4.7,4.71,6.94,6.96,1.24,1.24,2.2,1.42,3.04,.56,.83-.84,.64-1.8-.61-3.05-2.25-2.24-4.5-4.48-6.94-6.91,.36-.27,.69-.45,.95-.71,2.14-2.12,4.27-4.25,6.39-6.38,.92-.93,.98-1.93,.21-2.68-.76-.75-1.75-.67-2.68,.25-1.78,1.76-3.55,3.53-5.31,5.31-.61,.62-1.18,1.27-1.83,1.97-1.99-2-3.82-3.85-5.65-5.7-.64-.65-1.27-1.32-1.96-1.91-.7-.6-1.68-.51-2.3,.12-.63,.63-.68,1.57-.1,2.31,.21,.27,.46,.49,.7,.73,2.25,2.25,4.5,4.49,6.82,6.81"/><path class="cls-3" d="M21.5,23.33c-2.33-2.32-4.57-4.57-6.82-6.81-.24-.24-.49-.47-.7-.73-.58-.74-.53-1.67,.1-2.31,.62-.62,1.6-.72,2.3-.12,.69,.59,1.32,1.26,1.96,1.91,1.84,1.84,3.67,3.69,5.65,5.7,.65-.7,1.22-1.35,1.83-1.97,1.76-1.78,3.53-3.55,5.31-5.31,.93-.92,1.92-1,2.68-.25,.76,.75,.71,1.76-.21,2.68-2.12,2.14-4.25,4.26-6.39,6.38-.26,.26-.59,.44-.95,.71,2.44,2.43,4.69,4.67,6.94,6.91,1.25,1.25,1.44,2.2,.61,3.05-.84,.85-1.8,.68-3.04-.56-2.24-2.25-4.49-4.5-6.94-6.96-.39,.48-.72,.95-1.11,1.35-1.97,2-3.96,3.98-5.95,5.96-.98,.97-1.98,1.04-2.75,.24-.74-.78-.66-1.73,.28-2.68,2.36-2.37,4.73-4.73,7.2-7.19"/></g></g></svg>