<?xml version="1.0" encoding="UTF-8"?><svg id="Layer_1" xmlns="http://www.w3.org/2000/svg" xmlns:xlink="http://www.w3.org/1999/xlink" viewBox="0 0 100 100"><defs><style>.cls-1{fill:none;}.cls-2{clip-path:url(#clippath);}.cls-3{fill:#231f20;}</style><clipPath id="clippath"><rect class="cls-1" x=".12" y=".28" width="99.56" height="99.59"/></clipPath></defs><g class="cls-2"><path class="cls-3" d="M29.86,23.82H15c-1.47,0-2.19-.49-2.17-1.49,.02-.98,.72-1.44,2.22-1.44H56.08c3.37,0,6.74-.02,10.11,.01,.83,0,1.16-.26,1.16-1.11-.02-5.15-.02-10.31,0-15.46,0-.82-.26-1.14-1.13-1.14-20.68,.02-41.36,.02-62.04,0-.85,0-1.14,.3-1.14,1.13,.02,5.15,.02,10.31,0,15.46,0,.85,.32,1.15,1.15,1.12,1.23-.05,2.46-.03,3.69,0,1,.02,1.6,.57,1.61,1.44,0,.86-.6,1.46-1.57,1.47-1.46,.02-2.92,.04-4.38,0-1.9-.06-3.38-1.5-3.39-3.44-.04-5.54-.05-11.08,0-16.63C.17,1.61,1.74,.29,4.03,.29c19.48,0,38.96,0,58.44,0,1.36,0,2.72,0,4.08,0,2.13,.02,3.65,1.34,3.68,3.45,.06,5.54,.06,11.09,0,16.63-.02,2.14-1.56,3.45-3.78,3.45-10.76,0-21.52,0-32.28,0h-1.24v14.88c.83-1.02,1.52-1.89,2.24-2.74,.72-.84,1.73-.9,2.34-.14,.5,.61,.48,1.27,0,1.87-1.64,2.05-3.27,4.11-4.95,6.12-.7,.84-1.62,.82-2.33-.03-1.65-2-3.28-4.02-4.89-6.05-.58-.73-.49-1.56,.13-2.09,.65-.56,1.5-.46,2.14,.28,.73,.85,1.42,1.73,2.26,2.76v-14.86Z"/><path class="cls-3" d="M47.68,61.92v14.93c.8-.99,1.41-1.78,2.07-2.54,.29-.33,.67-.81,1.02-.82,.54,0,1.22,.2,1.6,.56,.52,.5,.36,1.2-.1,1.77-1.36,1.69-2.73,3.38-4.09,5.07-.28,.35-.55,.72-.87,1.05-.68,.71-1.58,.76-2.2,.02-1.73-2.06-3.41-4.16-5.08-6.27-.51-.65-.34-1.52,.27-2,.61-.47,1.45-.42,2.01,.22,.76,.87,1.47,1.78,2.34,2.85v-14.85h-1.13c-8.17,0-16.34,0-24.51,0-2.77,0-4.11-1.34-4.11-4.11,0-5.15,0-10.31,0-15.46,0-2.6,1.35-3.95,3.95-3.95,.94,0,1.88-.02,2.82,0,.91,.03,1.51,.62,1.52,1.43,0,.8-.61,1.43-1.51,1.47-.97,.04-1.94,.03-2.92,0-.64-.02-.95,.2-.95,.89,.01,5.28,.01,10.57,0,15.85,0,.65,.25,.97,.91,.95,.19,0,.39,0,.58,0h61.27q1.48,0,1.49-1.52v-14.68q0-1.47-1.52-1.48c-12.9,0-25.8,0-38.7,0-.39,0-.79,.01-1.15-.09-.7-.2-1.09-.72-1.05-1.45,.05-.76,.5-1.25,1.28-1.36,.26-.04,.52-.02,.78-.02h39.29c2.68,0,3.99,1.31,4,3.99,0,5.12,0,10.24,0,15.37,0,2.87-1.29,4.17-4.14,4.17H47.68Z"/><path class="cls-3" d="M64.64,99.87h-31.01c-2.72,0-4.08-1.34-4.09-4.04,0-5.15,0-10.3,0-15.46,0-2.69,1.37-4.04,4.09-4.04,.91,0,1.81-.02,2.72,0,.97,.03,1.57,.63,1.54,1.5-.02,.82-.6,1.38-1.54,1.41-.97,.03-1.94,.03-2.92,0-.64-.02-.98,.22-.98,.89,0,5.31,0,10.63,0,15.94,0,.6,.26,.91,.89,.87,.19-.01,.39,0,.58,0h61.34q1.46,0,1.47-1.46c0-4.99,0-9.98,0-14.97,0-1.19-.08-1.26-1.28-1.26-2.82,0-5.64,0-8.46,0-1.15,0-1.81-.54-1.83-1.43-.02-.93,.67-1.49,1.87-1.49,2.98,0,5.96-.01,8.95,0,2.14,.01,3.65,1.45,3.66,3.57,.03,5.44,.03,10.89,0,16.33-.01,2.22-1.52,3.62-3.81,3.62-10.4,0-20.8,0-31.21,0"/><path class="cls-3" d="M64.78,86.64c8.23,0,16.45,0,24.68,0,.32,0,.66-.03,.97,.03,.76,.14,1.23,.64,1.23,1.41,0,.81-.46,1.32-1.28,1.46-.22,.04-.45,.02-.68,.02-16.55,0-33.1,0-49.65,0-.26,0-.53,.03-.77-.02-.75-.16-1.21-.62-1.23-1.41-.01-.79,.44-1.28,1.18-1.45,.34-.08,.71-.04,1.06-.04,8.16,0,16.32,0,24.49,0"/><path class="cls-3" d="M55.75,48.9c6.74,0,13.48-.02,20.23,.03,.54,0,1.24,.26,1.59,.64,.68,.75,.16,1.94-.87,2.18-.34,.08-.71,.06-1.06,.06-13.22,0-26.45,0-39.67,0-.19,0-.39,0-.58,0-1.03-.06-1.66-.66-1.62-1.54,.04-.84,.65-1.37,1.67-1.37,6.78,0,13.55,0,20.32,0"/><path class="cls-3" d="M40.46,13.52H20.83c-.32,0-.66,.03-.97-.02-.8-.14-1.29-.62-1.28-1.46,.01-.84,.5-1.3,1.31-1.42,.25-.04,.52-.02,.78-.02H60.42c.29,0,.59-.03,.87,.02,.76,.15,1.22,.62,1.24,1.4,.02,.78-.43,1.27-1.18,1.45-.31,.07-.64,.04-.97,.04-6.64,0-13.28,0-19.92,0"/><path class="cls-3" d="M68.19,76.34h11.47c.23,0,.45,0,.68,0,.92,.05,1.5,.61,1.52,1.43,.01,.87-.58,1.48-1.56,1.48-8.07,.01-16.13,.01-24.2,0-.99,0-1.61-.58-1.63-1.43-.02-.87,.64-1.48,1.68-1.48,4.02-.01,8.03,0,12.05,0"/></g></svg>