<svg id="svg" version="1.1" xmlns="http://www.w3.org/2000/svg" xmlns:xlink="http://www.w3.org/1999/xlink" width="400" height="357.07762557077626" viewBox="0, 0, 400,357.07762557077626"><g id="svgg"><path id="path0" d="M180.714 72.353 C 180.027 72.433,176.813 72.754,173.571 73.065 C 170.330 73.377,167.036 73.763,166.250 73.923 C 165.464 74.083,163.455 74.483,161.786 74.813 C 150.194 77.105,136.519 82.541,126.786 88.729 C 113.455 97.202,91.118 117.857,95.285 117.857 C 95.469 117.857,96.725 118.740,98.077 119.820 L 100.536 121.782 102.291 119.731 C 115.925 103.795,133.864 91.309,151.607 85.405 C 179.737 76.045,214.135 78.702,238.532 92.120 C 239.983 92.918,241.218 93.571,241.277 93.571 C 241.447 93.571,247.128 97.184,249.420 98.750 C 256.664 103.698,267.049 113.429,273.304 121.128 C 276.830 125.469,276.869 125.312,272.232 125.434 L 268.393 125.536 268.291 129.196 L 268.189 132.857 277.868 132.857 C 290.951 132.857,290.000 133.781,290.000 121.083 L 290.000 112.500 286.084 112.500 L 282.168 112.500 282.066 116.119 L 281.964 119.739 278.759 115.852 C 274.603 110.812,265.834 102.057,261.071 98.192 C 255.298 93.506,250.119 89.942,244.107 86.516 C 226.938 76.733,198.208 70.314,180.714 72.353 M166.786 115.307 C 159.401 117.434,151.901 120.705,146.529 124.142 C 144.020 125.746,143.980 125.960,145.647 128.817 C 153.204 141.761,139.344 156.047,126.646 148.401 C 123.737 146.649,123.113 146.726,121.656 149.018 C 117.871 154.972,114.151 163.567,112.632 169.870 C 111.462 174.724,111.612 175.217,114.414 175.740 C 129.112 178.486,129.783 199.404,115.291 203.074 C 111.635 204.000,111.494 204.279,112.503 208.571 C 114.053 215.167,117.732 223.996,121.156 229.338 C 123.192 232.513,123.174 232.509,126.555 230.762 C 141.045 223.277,153.795 238.032,144.777 251.848 C 143.367 254.007,152.405 259.237,164.107 263.033 C 171.499 265.430,172.283 265.268,173.583 261.071 C 177.926 247.058,196.856 247.214,200.538 261.294 C 201.444 264.757,201.606 264.881,204.550 264.372 C 210.331 263.373,219.557 259.709,226.206 255.773 C 229.952 253.555,230.086 253.196,228.293 250.222 C 220.668 237.580,233.779 223.670,246.877 230.506 C 248.631 231.421,250.334 232.085,250.662 231.981 C 253.289 231.147,262.143 210.640,262.143 205.389 C 262.143 204.124,261.582 203.746,258.867 203.178 C 249.212 201.161,245.003 189.733,250.769 181.197 C 252.538 178.578,257.222 175.714,259.735 175.714 C 260.948 175.714,262.143 174.732,262.143 173.734 C 262.143 170.550,258.350 159.990,254.773 153.214 C 251.241 146.524,250.834 146.263,247.283 148.401 C 240.125 152.711,231.152 149.978,227.321 142.320 C 225.330 138.340,226.047 131.213,228.739 128.224 C 229.696 127.162,229.743 125.930,228.858 125.134 C 225.151 121.801,210.322 115.495,203.722 114.446 C 201.913 114.158,201.239 114.732,200.880 116.868 C 198.373 131.774,177.913 132.466,173.439 117.797 C 172.210 113.769,172.173 113.755,166.786 115.307 M170.616 122.468 C 177.388 136.542,197.246 136.201,203.795 121.898 C 204.261 120.879,204.643 119.875,204.643 119.666 C 204.643 118.505,214.010 121.730,220.333 125.069 C 224.170 127.095,224.061 126.899,222.982 129.822 C 217.326 145.154,233.428 160.393,247.628 153.149 L 249.067 152.415 249.753 153.261 C 251.761 155.739,257.119 168.686,257.138 171.106 C 257.141 171.438,256.506 171.956,255.625 172.342 C 239.928 179.211,239.764 201.034,255.367 206.645 C 256.539 207.067,257.143 207.488,257.143 207.884 C 257.143 210.523,250.381 226.429,249.259 226.429 C 249.124 226.429,247.910 226.010,246.560 225.497 C 232.131 220.021,217.594 234.268,222.836 248.750 C 223.262 249.929,223.697 251.158,223.802 251.482 C 224.197 252.700,214.899 257.059,206.918 259.399 L 205.085 259.936 203.598 256.936 C 196.571 242.754,177.254 242.694,170.455 256.834 C 168.903 260.061,168.892 260.065,165.166 258.795 C 160.013 257.038,158.465 256.416,154.907 254.670 C 149.591 252.061,149.887 252.529,151.151 248.749 C 156.101 233.949,143.164 220.853,128.163 225.477 C 126.465 226.000,124.910 226.429,124.709 226.429 C 124.283 226.429,120.305 218.717,119.642 216.607 C 119.395 215.821,119.071 215.018,118.922 214.821 C 118.678 214.499,117.342 210.228,116.900 208.357 C 116.748 207.715,117.166 207.387,119.787 206.089 C 133.838 199.128,133.754 179.629,119.644 172.951 C 118.083 172.212,116.801 171.424,116.795 171.199 C 116.749 169.227,122.373 155.637,124.208 153.288 L 124.847 152.470 126.799 153.349 C 141.106 159.797,156.403 145.277,151.089 130.294 C 150.271 127.988,150.131 127.229,150.464 126.907 C 151.730 125.686,160.046 121.972,165.000 120.414 C 166.277 120.013,167.563 119.607,167.857 119.513 C 168.932 119.170,169.133 119.386,170.616 122.468 M77.507 143.780 C 72.960 146.070,70.000 147.763,70.000 148.075 C 70.000 148.536,72.016 152.727,72.770 153.833 C 72.997 154.166,73.761 153.974,75.896 153.045 C 79.296 151.567,79.167 151.479,78.020 154.506 C 67.246 182.950,67.689 203.797,79.703 233.571 C 92.857 266.171,120.303 290.436,155.399 300.497 C 167.283 303.903,172.142 304.676,183.125 304.906 L 191.786 305.088 191.786 301.472 L 191.786 297.857 189.732 297.844 C 174.351 297.742,160.336 295.142,147.857 290.075 C 146.188 289.397,144.033 288.531,143.069 288.151 C 116.100 277.520,92.114 250.765,82.931 221.071 C 80.112 211.958,79.466 209.159,78.540 202.067 C 76.700 187.977,78.163 177.072,84.195 159.911 C 86.604 153.055,86.484 153.098,88.767 158.294 C 89.347 159.615,90.000 160.699,90.218 160.705 C 90.707 160.717,96.786 157.929,96.786 157.693 C 96.786 157.599,96.478 156.914,96.102 156.172 C 95.726 155.429,95.069 154.018,94.643 153.036 C 94.216 152.054,93.574 150.607,93.216 149.821 C 92.857 149.036,92.161 147.509,91.669 146.429 C 91.176 145.348,90.528 143.863,90.228 143.128 C 88.487 138.867,87.125 138.937,77.507 143.780 M293.036 148.222 C 291.661 148.795,290.317 149.270,290.051 149.275 C 289.513 149.287,289.695 150.438,290.531 152.321 C 293.148 158.212,295.858 171.608,296.505 181.846 C 299.483 228.997,272.003 272.411,228.186 289.783 C 224.400 291.284,224.405 291.291,226.786 287.644 C 227.768 286.139,228.571 284.808,228.571 284.685 C 228.571 284.480,225.252 282.255,223.270 281.131 C 222.262 280.560,222.786 279.903,217.054 288.929 C 211.708 297.347,211.583 298.508,215.826 300.330 C 216.648 300.683,218.446 301.490,219.821 302.123 C 221.196 302.756,222.964 303.563,223.750 303.915 C 224.536 304.267,226.300 305.066,227.670 305.690 C 230.164 306.825,231.071 306.721,231.071 305.298 C 231.071 305.144,231.554 303.965,232.143 302.679 C 232.732 301.392,233.214 300.268,233.214 300.181 C 233.214 300.093,232.330 299.589,231.250 299.060 C 229.191 298.052,228.871 297.622,229.911 297.260 C 256.757 287.932,282.904 262.781,294.637 235.000 C 295.260 233.527,295.981 231.839,296.241 231.250 C 298.713 225.638,302.500 210.889,303.349 203.571 C 305.655 183.679,303.610 165.565,297.198 149.107 C 296.355 146.942,296.187 146.906,293.036 148.222 M182.857 154.849 C 182.366 154.937,181.000 155.182,179.821 155.395 C 149.995 160.775,142.154 202.003,167.780 218.703 C 200.657 240.128,238.160 199.535,214.514 168.118 C 207.559 158.876,193.446 152.961,182.857 154.849 M194.496 159.649 C 221.073 166.422,226.201 202.291,202.576 216.167 C 200.886 217.160,200.628 217.286,198.083 218.350 C 184.004 224.236,166.298 217.243,159.312 203.036 C 147.868 179.764,169.372 153.246,194.496 159.649 M183.036 174.956 C 174.225 177.290,169.412 187.639,173.339 195.805 C 179.847 209.336,199.383 206.630,201.822 191.859 C 203.550 181.400,193.351 172.224,183.036 174.956 " stroke="none" fill="#070808" fill-rule="evenodd"></path><path id="path1" d="M164.821 120.690 C 159.516 122.531,158.446 122.966,155.022 124.665 C 149.915 127.199,150.066 127.027,151.022 129.251 C 157.223 143.666,142.772 159.328,128.118 154.074 C 126.698 153.565,125.295 153.123,125.000 153.092 C 123.875 152.974,118.126 165.996,117.277 170.585 C 117.083 171.634,117.158 171.735,118.445 172.147 C 133.605 177.009,134.662 198.770,120.097 206.162 L 117.108 207.679 117.336 208.929 C 117.872 211.869,120.020 217.397,122.611 222.500 C 124.775 226.763,124.617 226.632,126.548 225.777 C 141.698 219.076,157.844 234.954,151.049 249.871 C 150.668 250.706,150.357 251.570,150.357 251.790 C 150.357 252.685,163.175 258.275,167.403 259.224 L 168.913 259.563 169.827 257.566 C 177.119 241.638,198.839 242.326,204.637 258.669 C 205.050 259.834,205.079 259.830,210.536 257.980 C 214.633 256.591,223.571 252.362,223.571 251.813 C 223.571 251.611,223.169 250.375,222.677 249.068 C 217.033 234.073,232.908 218.960,247.399 225.533 L 249.262 226.378 250.321 224.527 C 251.657 222.192,254.028 217.050,254.633 215.177 C 254.887 214.392,255.193 213.589,255.315 213.393 C 255.436 213.196,255.857 211.841,256.250 210.381 L 256.964 207.726 253.927 206.208 C 239.966 199.232,239.934 179.705,253.872 173.018 L 256.813 171.607 256.603 170.186 C 256.384 168.698,254.512 162.966,253.743 161.429 C 253.497 160.938,252.521 158.960,251.573 157.035 C 249.369 152.558,249.636 152.709,246.126 153.951 C 231.149 159.251,216.687 143.917,222.922 129.349 L 223.735 127.448 222.939 126.849 C 220.265 124.839,207.711 119.643,205.528 119.643 C 205.302 119.643,204.459 120.971,203.655 122.593 C 196.699 136.630,177.276 136.516,170.205 122.397 C 168.631 119.254,168.801 119.308,164.821 120.690 M195.807 155.520 C 223.372 163.039,231.371 197.552,209.859 216.150 C 192.554 231.111,165.841 225.722,155.477 205.179 C 146.915 188.207,154.152 166.481,171.123 158.206 C 172.372 157.598,173.642 156.967,173.947 156.805 C 174.804 156.350,179.952 154.989,182.143 154.638 C 185.714 154.067,191.957 154.470,195.807 155.520 " stroke="none" fill="#63c39b" fill-rule="evenodd"></path><path id="path2" d="M0.000 178.571 L 0.000 357.143 200.000 357.143 L 400.000 357.143 400.000 178.571 L 400.000 0.000 200.000 0.000 L 0.000 0.000 0.000 178.571 M199.360 72.515 C 207.362 73.174,220.574 75.947,226.429 78.196 C 226.920 78.385,228.848 79.122,230.714 79.834 C 238.903 82.959,249.698 88.978,256.593 94.262 C 259.932 96.821,259.966 96.848,262.642 99.065 C 266.160 101.979,276.836 112.837,279.643 116.355 L 281.964 119.266 282.066 115.704 L 282.168 112.143 286.077 112.143 L 289.986 112.143 290.227 113.101 C 290.582 114.517,290.058 130.653,289.631 131.451 C 288.751 133.096,287.774 133.232,277.596 133.131 L 268.036 133.036 267.933 129.517 C 267.800 124.960,267.762 125.000,272.187 125.000 C 276.449 125.000,276.443 125.431,272.255 120.403 C 266.574 113.583,260.205 107.458,252.500 101.406 C 243.457 94.303,230.892 88.002,218.657 84.433 C 197.954 78.394,169.776 78.929,151.607 85.705 C 145.934 87.821,143.777 88.654,143.259 88.932 C 142.940 89.103,141.011 90.061,138.973 91.061 C 125.630 97.609,112.077 108.501,101.688 121.023 L 100.698 122.217 97.946 120.126 C 96.433 118.977,94.964 117.858,94.682 117.641 C 93.397 116.651,108.010 101.891,117.143 94.954 C 129.188 85.805,143.312 78.892,156.429 75.727 C 157.902 75.372,159.348 74.986,159.643 74.869 C 160.222 74.640,169.297 73.084,172.500 72.665 C 178.058 71.937,191.419 71.862,199.360 72.515 M172.406 114.475 C 172.865 114.796,173.274 115.567,173.401 116.350 C 175.853 131.463,197.455 132.039,200.400 117.070 C 201.028 113.877,201.630 113.603,205.823 114.608 C 214.335 116.647,228.294 123.079,229.666 125.594 C 230.024 126.250,229.915 126.679,228.939 128.451 C 223.062 139.120,228.623 149.821,240.044 149.821 L 243.838 149.821 247.094 148.120 C 250.779 146.194,250.966 146.213,252.550 148.699 C 258.159 157.497,263.041 170.844,262.188 175.046 C 262.122 175.375,260.428 176.001,258.436 176.432 C 244.825 179.380,245.754 200.856,259.589 203.068 C 263.260 203.655,263.133 207.096,259.057 217.500 C 254.945 227.995,251.302 233.258,249.024 231.998 C 244.163 229.310,243.527 229.107,240.000 229.114 C 228.885 229.134,222.857 240.668,228.848 250.453 C 229.940 252.235,230.055 252.630,229.709 253.391 C 228.494 256.058,210.228 264.239,204.013 264.901 C 201.663 265.151,200.911 264.572,200.382 262.103 C 198.679 254.164,191.174 249.537,183.281 251.561 C 178.224 252.858,175.156 256.387,173.148 263.214 L 172.675 264.821 170.355 264.764 C 165.883 264.652,152.999 259.585,146.518 255.389 C 143.987 253.751,143.633 252.634,145.026 250.678 C 154.008 238.064,138.702 223.055,125.659 231.686 C 123.082 233.391,121.974 232.269,117.649 223.571 C 111.966 212.141,110.218 203.214,113.665 203.214 C 115.358 203.214,119.853 200.902,121.607 199.128 C 128.867 191.785,125.268 178.714,115.357 176.430 C 111.807 175.612,111.386 175.208,111.632 172.864 C 112.312 166.406,119.992 148.926,123.022 146.940 C 123.869 146.385,123.992 146.415,126.089 147.689 C 139.203 155.656,153.643 141.189,145.118 128.626 C 143.747 126.606,144.064 125.450,146.429 123.848 C 150.603 121.021,158.253 117.520,164.107 115.758 C 170.803 113.743,171.260 113.672,172.406 114.475 M88.955 140.625 C 89.802 141.575,90.191 142.291,91.721 145.714 C 92.116 146.598,92.916 148.366,93.498 149.643 C 97.582 158.603,97.583 157.841,93.482 159.779 C 89.410 161.703,90.029 162.105,87.235 155.714 L 86.689 154.464 85.987 156.071 C 84.767 158.866,82.258 166.272,81.087 170.536 C 76.083 188.754,77.728 208.265,85.965 228.393 C 86.447 229.571,87.103 231.179,87.423 231.964 C 97.538 256.801,120.464 279.094,146.158 289.076 C 153.742 292.022,155.725 292.679,161.250 294.077 C 168.915 296.018,174.322 296.741,183.768 297.091 C 187.903 297.245,191.479 297.489,191.715 297.635 C 192.291 297.991,192.309 304.855,191.734 305.210 C 190.123 306.206,170.993 304.909,165.000 303.398 C 163.920 303.125,162.071 302.663,160.893 302.370 C 122.496 292.832,94.430 269.313,79.647 234.286 C 79.026 232.813,78.304 231.125,78.043 230.536 C 76.616 227.307,73.260 216.399,71.989 210.858 C 69.759 201.136,69.575 183.668,71.609 174.821 C 71.880 173.643,72.202 172.116,72.324 171.429 C 72.969 167.809,76.284 157.622,78.454 152.593 C 78.559 152.349,77.411 152.713,75.902 153.400 C 74.393 154.088,73.006 154.556,72.819 154.441 C 72.348 154.150,69.200 147.824,69.418 147.606 C 69.515 147.509,73.020 145.683,77.208 143.548 C 85.885 139.125,87.304 138.771,88.955 140.625 M296.718 147.240 C 300.530 151.833,304.458 172.783,304.435 188.393 C 304.361 237.212,275.311 280.028,230.369 297.555 C 229.531 297.882,229.587 297.943,231.530 298.822 C 233.887 299.888,233.820 299.700,232.733 302.188 C 232.272 303.243,231.598 304.790,231.236 305.625 C 230.413 307.521,231.406 307.746,222.087 303.546 C 209.842 298.027,210.149 299.108,217.526 287.517 C 222.693 279.399,222.030 279.814,225.858 282.309 C 229.454 284.653,229.360 284.320,227.321 287.500 C 225.294 290.663,225.324 290.712,228.393 289.299 C 228.786 289.119,230.313 288.459,231.786 287.834 C 239.274 284.658,252.809 276.511,256.071 273.216 C 256.170 273.117,257.455 272.010,258.929 270.757 C 273.562 258.308,285.827 239.774,291.218 221.964 C 291.753 220.196,292.416 218.014,292.690 217.114 C 296.876 203.390,297.472 181.965,294.103 166.279 C 293.141 161.799,292.935 161.057,290.680 153.965 C 289.906 151.529,289.318 149.491,289.374 149.435 C 290.389 148.421,296.245 146.670,296.718 147.240 M180.536 159.788 C 172.812 161.465,165.591 166.458,161.377 173.036 C 151.681 188.172,157.220 208.638,173.214 216.774 C 186.655 223.611,203.613 219.259,212.131 206.786 C 227.588 184.152,207.302 153.976,180.536 159.788 M192.143 175.059 C 201.451 178.240,205.282 189.512,199.924 197.956 C 194.872 205.919,183.435 207.270,176.479 200.725 C 164.397 189.357,176.405 169.681,192.143 175.059 " stroke="none" fill="#fbfbfb" fill-rule="evenodd"></path><path id="path3" d="M195.804 72.389 C 196.147 72.479,196.710 72.479,197.054 72.389 C 197.397 72.299,197.116 72.226,196.429 72.226 C 195.741 72.226,195.460 72.299,195.804 72.389 M202.946 73.103 C 203.290 73.193,203.853 73.193,204.196 73.103 C 204.540 73.013,204.259 72.940,203.571 72.940 C 202.884 72.940,202.603 73.013,202.946 73.103 M180.446 80.246 C 180.790 80.336,181.353 80.336,181.696 80.246 C 182.040 80.156,181.759 80.083,181.071 80.083 C 180.384 80.083,180.103 80.156,180.446 80.246 M192.232 80.246 C 192.576 80.336,193.138 80.336,193.482 80.246 C 193.826 80.156,193.545 80.083,192.857 80.083 C 192.170 80.083,191.888 80.156,192.232 80.246 M172.589 80.960 C 172.933 81.050,173.496 81.050,173.839 80.960 C 174.183 80.871,173.902 80.797,173.214 80.797 C 172.527 80.797,172.246 80.871,172.589 80.960 M200.272 80.967 C 200.716 81.052,201.359 81.049,201.701 80.960 C 202.042 80.870,201.679 80.800,200.893 80.804 C 200.107 80.808,199.828 80.881,200.272 80.967 M247.857 97.987 C 247.857 98.085,248.339 98.509,248.929 98.929 C 249.518 99.348,250.000 99.611,250.000 99.513 C 250.000 99.415,249.518 98.991,248.929 98.571 C 248.339 98.152,247.857 97.889,247.857 97.987 M108.013 102.589 L 106.964 103.750 108.125 102.701 C 109.207 101.723,109.450 101.429,109.174 101.429 C 109.112 101.429,108.590 101.951,108.013 102.589 M265.714 101.897 C 265.714 101.959,266.237 102.481,266.875 103.058 L 268.036 104.107 266.987 102.946 C 266.009 101.864,265.714 101.622,265.714 101.897 M114.090 107.946 L 112.679 109.464 114.196 108.053 C 115.608 106.740,115.878 106.429,115.608 106.429 C 115.550 106.429,114.867 107.112,114.090 107.946 M273.393 109.643 C 274.160 110.429,274.868 111.071,274.966 111.071 C 275.065 111.071,274.517 110.429,273.750 109.643 C 272.983 108.857,272.275 108.214,272.176 108.214 C 272.078 108.214,272.626 108.857,273.393 109.643 M284.018 112.407 C 285.147 112.478,286.996 112.478,288.125 112.407 C 289.254 112.336,288.330 112.278,286.071 112.278 C 283.813 112.278,282.888 112.336,284.018 112.407 M290.147 118.929 C 290.147 122.366,290.200 123.772,290.266 122.054 C 290.331 120.335,290.331 117.522,290.266 115.804 C 290.200 114.085,290.147 115.491,290.147 118.929 M94.814 116.437 C 94.275 117.033,94.243 117.237,94.632 117.598 C 95.008 117.946,95.050 117.940,94.839 117.567 C 94.686 117.297,94.839 116.804,95.199 116.406 C 95.543 116.026,95.745 115.714,95.646 115.714 C 95.548 115.714,95.174 116.040,94.814 116.437 M104.805 117.232 L 103.393 118.750 104.911 117.338 C 106.322 116.025,106.593 115.714,106.322 115.714 C 106.264 115.714,105.581 116.397,104.805 117.232 M199.107 120.714 C 198.802 121.304,198.633 121.786,198.732 121.786 C 198.830 121.786,199.160 121.304,199.464 120.714 C 199.769 120.125,199.938 119.643,199.840 119.643 C 199.742 119.643,199.412 120.125,199.107 120.714 M268.286 125.429 C 267.811 125.903,267.667 132.697,268.125 132.981 C 268.272 133.073,268.393 131.435,268.393 129.342 L 268.393 125.536 272.143 125.338 L 275.893 125.140 272.304 125.070 C 269.903 125.023,268.572 125.142,268.286 125.429 M147.597 136.429 C 147.597 137.313,147.667 137.674,147.752 137.232 C 147.837 136.790,147.837 136.067,147.752 135.625 C 147.667 135.183,147.597 135.545,147.597 136.429 M228.929 144.755 C 228.929 144.816,229.451 145.338,230.089 145.915 L 231.250 146.964 230.201 145.804 C 229.223 144.722,228.929 144.479,228.929 144.755 M132.768 150.258 C 133.406 150.338,134.451 150.338,135.089 150.258 C 135.728 150.179,135.205 150.114,133.929 150.114 C 132.652 150.114,132.129 150.179,132.768 150.258 M238.839 150.258 C 239.478 150.338,240.522 150.338,241.161 150.258 C 241.799 150.179,241.277 150.114,240.000 150.114 C 238.723 150.114,238.201 150.179,238.839 150.258 M89.268 160.248 C 89.765 161.276,90.101 161.456,90.731 161.033 C 91.162 160.743,91.148 160.702,90.645 160.789 C 90.312 160.846,89.781 160.571,89.464 160.179 C 88.899 159.477,88.896 159.478,89.268 160.248 M208.571 168.036 C 209.238 168.723,209.863 169.286,209.962 169.286 C 210.060 169.286,209.595 168.723,208.929 168.036 C 208.262 167.348,207.637 166.786,207.538 166.786 C 207.440 166.786,207.905 167.348,208.571 168.036 M304.011 176.786 C 304.011 177.473,304.085 177.754,304.175 177.411 C 304.265 177.067,304.265 176.504,304.175 176.161 C 304.085 175.817,304.011 176.098,304.011 176.786 M295.797 177.500 C 295.797 178.188,295.871 178.469,295.960 178.125 C 296.050 177.781,296.050 177.219,295.960 176.875 C 295.871 176.531,295.797 176.813,295.797 177.500 M121.429 179.821 C 122.095 180.509,122.720 181.071,122.819 181.071 C 122.917 181.071,122.452 180.509,121.786 179.821 C 121.119 179.134,120.494 178.571,120.396 178.571 C 120.297 178.571,120.762 179.134,121.429 179.821 M296.169 180.714 C 296.169 181.598,296.238 181.960,296.323 181.518 C 296.409 181.076,296.409 180.353,296.323 179.911 C 296.238 179.469,296.169 179.830,296.169 180.714 M304.376 181.964 C 304.380 182.750,304.453 183.029,304.538 182.585 C 304.624 182.141,304.620 181.498,304.531 181.157 C 304.442 180.815,304.372 181.179,304.376 181.964 M173.019 182.890 C 172.704 183.498,172.511 184.058,172.588 184.136 C 172.666 184.213,172.996 183.716,173.323 183.031 C 174.058 181.491,173.803 181.373,173.019 182.890 M217.233 185.893 C 217.237 186.679,217.310 186.958,217.395 186.514 C 217.481 186.069,217.478 185.427,217.388 185.085 C 217.299 184.744,217.229 185.107,217.233 185.893 M156.519 186.964 C 156.523 187.750,156.596 188.029,156.681 187.585 C 156.767 187.141,156.763 186.498,156.674 186.157 C 156.585 185.815,156.515 186.179,156.519 186.964 M125.480 189.464 C 125.481 191.036,125.544 191.634,125.619 190.794 C 125.695 189.954,125.693 188.668,125.617 187.937 C 125.540 187.206,125.478 187.893,125.480 189.464 M202.260 189.464 C 202.262 190.839,202.326 191.358,202.403 190.617 C 202.481 189.876,202.480 188.751,202.401 188.117 C 202.322 187.483,202.258 188.089,202.260 189.464 M70.140 192.143 C 70.140 194.795,70.196 195.879,70.265 194.554 C 70.334 193.228,70.334 191.058,70.265 189.732 C 70.196 188.406,70.140 189.491,70.140 192.143 M248.331 189.821 C 248.333 191.196,248.398 191.715,248.475 190.974 C 248.552 190.233,248.551 189.108,248.472 188.474 C 248.393 187.840,248.330 188.446,248.331 189.821 M171.536 189.643 C 171.536 190.723,171.603 191.165,171.684 190.625 C 171.766 190.085,171.766 189.201,171.684 188.661 C 171.603 188.121,171.536 188.563,171.536 189.643 M77.977 191.429 C 77.977 192.902,78.040 193.504,78.117 192.768 C 78.194 192.031,78.194 190.826,78.117 190.089 C 78.040 189.353,77.977 189.955,77.977 191.429 M156.511 192.143 C 156.511 192.830,156.585 193.112,156.675 192.768 C 156.765 192.424,156.765 191.862,156.675 191.518 C 156.585 191.174,156.511 191.455,156.511 192.143 M217.233 193.393 C 217.237 194.179,217.310 194.458,217.395 194.014 C 217.481 193.569,217.478 192.927,217.388 192.585 C 217.299 192.244,217.229 192.607,217.233 193.393 M304.376 194.464 C 304.380 195.250,304.453 195.529,304.538 195.085 C 304.624 194.641,304.620 193.998,304.531 193.657 C 304.442 193.315,304.372 193.679,304.376 194.464 M296.169 196.786 C 296.169 197.670,296.238 198.031,296.323 197.589 C 296.409 197.147,296.409 196.424,296.323 195.982 C 296.238 195.540,296.169 195.902,296.169 196.786 M304.011 199.643 C 304.011 200.330,304.085 200.612,304.175 200.268 C 304.265 199.924,304.265 199.362,304.175 199.018 C 304.085 198.674,304.011 198.955,304.011 199.643 M197.838 200.268 L 196.607 201.607 197.946 200.376 C 198.683 199.699,199.286 199.097,199.286 199.037 C 199.286 198.764,198.983 199.021,197.838 200.268 M295.797 200.000 C 295.797 200.688,295.871 200.969,295.960 200.625 C 296.050 200.281,296.050 199.719,295.960 199.375 C 295.871 199.031,295.797 199.313,295.797 200.000 M159.464 203.214 C 159.769 203.804,160.099 204.286,160.197 204.286 C 160.295 204.286,160.126 203.804,159.821 203.214 C 159.517 202.625,159.187 202.143,159.089 202.143 C 158.991 202.143,159.160 202.625,159.464 203.214 M163.214 209.040 C 163.214 209.102,163.737 209.624,164.375 210.201 L 165.536 211.250 164.487 210.089 C 163.509 209.007,163.214 208.764,163.214 209.040 M141.250 230.963 C 142.400 232.138,144.715 233.967,143.929 233.080 C 143.438 232.526,142.554 231.741,141.964 231.336 C 141.375 230.930,141.054 230.763,141.250 230.963 M229.805 233.304 L 228.393 234.821 229.911 233.410 C 231.322 232.097,231.593 231.786,231.322 231.786 C 231.264 231.786,230.581 232.469,229.805 233.304 M147.597 242.500 C 147.597 243.384,147.667 243.746,147.752 243.304 C 147.837 242.862,147.837 242.138,147.752 241.696 C 147.667 241.254,147.597 241.616,147.597 242.500 M186.166 250.971 C 186.709 251.053,187.512 251.050,187.951 250.966 C 188.391 250.881,187.946 250.814,186.964 250.816 C 185.982 250.819,185.623 250.888,186.166 250.971 M196.607 255.000 C 197.374 255.786,198.082 256.429,198.181 256.429 C 198.279 256.429,197.732 255.786,196.964 255.000 C 196.197 254.214,195.489 253.571,195.391 253.571 C 195.293 253.571,195.840 254.214,196.607 255.000 M280.714 259.286 C 280.295 259.875,280.032 260.357,280.130 260.357 C 280.228 260.357,280.652 259.875,281.071 259.286 C 281.491 258.696,281.754 258.214,281.656 258.214 C 281.558 258.214,281.134 258.696,280.714 259.286 M269.085 260.804 L 268.036 261.964 269.196 260.915 C 269.835 260.338,270.357 259.816,270.357 259.755 C 270.357 259.479,270.062 259.722,269.085 260.804 M274.624 266.696 L 273.393 268.036 274.732 266.805 C 275.979 265.659,276.236 265.357,275.963 265.357 C 275.903 265.357,275.301 265.960,274.624 266.696 M100.000 266.964 C 100.666 267.652,101.292 268.214,101.390 268.214 C 101.488 268.214,101.023 267.652,100.357 266.964 C 99.691 266.277,99.065 265.714,98.967 265.714 C 98.869 265.714,99.334 266.277,100.000 266.964 M260.156 269.732 L 259.107 270.893 260.268 269.844 C 260.906 269.267,261.429 268.745,261.429 268.683 C 261.429 268.407,261.134 268.650,260.156 269.732 M266.233 275.089 L 264.821 276.607 266.339 275.195 C 267.751 273.882,268.021 273.571,267.751 273.571 C 267.693 273.571,267.010 274.254,266.233 275.089 M138.214 285.517 C 138.214 285.616,138.696 285.945,139.286 286.250 C 139.875 286.555,140.357 286.724,140.357 286.625 C 140.357 286.527,139.875 286.198,139.286 285.893 C 138.696 285.588,138.214 285.419,138.214 285.517 M177.589 297.032 C 177.933 297.122,178.496 297.122,178.839 297.032 C 179.183 296.942,178.902 296.869,178.214 296.869 C 177.527 296.869,177.246 296.942,177.589 297.032 M186.607 297.520 C 189.161 297.661,191.371 297.794,191.518 297.816 C 192.157 297.914,191.813 304.944,191.161 305.100 C 190.685 305.213,190.706 305.240,191.250 305.214 C 191.917 305.181,191.964 304.929,191.964 301.432 L 191.964 297.686 190.893 297.456 C 190.304 297.330,188.054 297.236,185.893 297.246 L 181.964 297.264 186.607 297.520 M177.774 305.259 C 178.416 305.338,179.380 305.337,179.917 305.255 C 180.454 305.174,179.929 305.109,178.750 305.111 C 177.571 305.113,177.132 305.179,177.774 305.259 M184.018 305.613 C 184.558 305.695,185.442 305.695,185.982 305.613 C 186.522 305.531,186.080 305.464,185.000 305.464 C 183.920 305.464,183.478 305.531,184.018 305.613 " stroke="none" fill="#9a9a9a" fill-rule="evenodd"></path><path id="path4" d="M179.380 72.399 C 179.923 72.481,180.726 72.479,181.166 72.394 C 181.605 72.309,181.161 72.242,180.179 72.245 C 179.196 72.248,178.837 72.317,179.380 72.399 M193.125 72.395 C 193.567 72.480,194.290 72.480,194.732 72.395 C 195.174 72.310,194.813 72.240,193.929 72.240 C 193.045 72.240,192.683 72.310,193.125 72.395 M174.737 72.756 C 175.280 72.838,176.084 72.836,176.523 72.751 C 176.962 72.667,176.518 72.599,175.536 72.602 C 174.554 72.605,174.194 72.674,174.737 72.756 M197.768 72.752 C 198.210 72.837,198.933 72.837,199.375 72.752 C 199.817 72.667,199.455 72.597,198.571 72.597 C 197.688 72.597,197.326 72.667,197.768 72.752 M171.875 73.103 C 172.219 73.193,172.781 73.193,173.125 73.103 C 173.469 73.013,173.188 72.940,172.500 72.940 C 171.813 72.940,171.531 73.013,171.875 73.103 M163.214 74.286 C 162.497 74.516,162.462 74.574,163.036 74.582 C 163.429 74.588,164.071 74.455,164.464 74.286 C 165.374 73.895,164.435 73.895,163.214 74.286 M209.643 74.286 C 210.134 74.443,210.857 74.572,211.250 74.572 C 211.816 74.572,211.778 74.512,211.071 74.286 C 210.580 74.128,209.857 74.000,209.464 74.000 C 208.899 74.000,208.936 74.059,209.643 74.286 M150.179 77.691 C 149.285 78.121,149.256 78.171,150.000 77.989 C 151.012 77.742,152.149 77.162,151.607 77.170 C 151.411 77.173,150.768 77.407,150.179 77.691 M178.304 80.246 C 178.647 80.336,179.210 80.336,179.554 80.246 C 179.897 80.156,179.616 80.083,178.929 80.083 C 178.241 80.083,177.960 80.156,178.304 80.246 M194.375 80.246 C 194.719 80.336,195.281 80.336,195.625 80.246 C 195.969 80.156,195.688 80.083,195.000 80.083 C 194.313 80.083,194.031 80.156,194.375 80.246 M109.266 101.696 L 108.036 103.036 109.375 101.805 C 110.112 101.128,110.714 100.525,110.714 100.466 C 110.714 100.193,110.412 100.450,109.266 101.696 M265.000 101.607 C 265.666 102.295,266.292 102.857,266.390 102.857 C 266.488 102.857,266.023 102.295,265.357 101.607 C 264.691 100.920,264.065 100.357,263.967 100.357 C 263.869 100.357,264.334 100.920,265.000 101.607 M269.821 106.071 C 270.988 107.250,272.022 108.214,272.120 108.214 C 272.219 108.214,271.345 107.250,270.179 106.071 C 269.012 104.893,267.978 103.929,267.880 103.929 C 267.781 103.929,268.655 104.893,269.821 106.071 M103.739 106.875 L 101.607 109.107 103.839 106.975 C 105.913 104.995,106.235 104.643,105.971 104.643 C 105.916 104.643,104.911 105.647,103.739 106.875 M261.250 108.571 C 262.217 109.554,263.089 110.357,263.187 110.357 C 263.286 110.357,262.575 109.554,261.607 108.571 C 260.640 107.589,259.768 106.786,259.670 106.786 C 259.571 106.786,260.283 107.589,261.250 108.571 M112.308 109.375 L 110.536 111.250 112.411 109.478 C 113.442 108.503,114.286 107.659,114.286 107.603 C 114.286 107.336,113.955 107.633,112.308 109.375 M99.286 111.607 C 98.418 112.491,97.789 113.214,97.887 113.214 C 97.985 113.214,98.775 112.491,99.643 111.607 C 100.510 110.723,101.140 110.000,101.042 110.000 C 100.943 110.000,100.153 110.723,99.286 111.607 M275.000 111.607 C 275.666 112.295,276.292 112.857,276.390 112.857 C 276.488 112.857,276.023 112.295,275.357 111.607 C 274.691 110.920,274.065 110.357,273.967 110.357 C 273.869 110.357,274.334 110.920,275.000 111.607 M106.059 115.625 L 104.107 117.679 106.161 115.726 C 107.290 114.653,108.214 113.729,108.214 113.673 C 108.214 113.408,107.873 113.717,106.059 115.625 M266.786 114.040 C 266.786 114.102,267.308 114.624,267.946 115.201 L 269.107 116.250 268.058 115.089 C 267.080 114.007,266.786 113.764,266.786 114.040 M160.893 116.977 C 160.000 117.407,159.970 117.457,160.714 117.275 C 161.726 117.027,162.864 116.448,162.321 116.456 C 162.125 116.458,161.482 116.693,160.893 116.977 M207.500 120.179 C 208.188 120.443,208.991 120.660,209.286 120.660 C 209.580 120.660,209.259 120.443,208.571 120.179 C 207.884 119.914,207.080 119.697,206.786 119.697 C 206.491 119.697,206.813 119.914,207.500 120.179 M169.286 120.494 C 169.286 120.877,170.348 122.857,170.554 122.857 C 170.652 122.857,170.467 122.335,170.142 121.696 C 169.479 120.393,169.286 120.121,169.286 120.494 M160.536 121.977 C 159.643 122.407,159.613 122.457,160.357 122.275 C 161.369 122.027,162.507 121.448,161.964 121.456 C 161.768 121.458,161.125 121.693,160.536 121.977 M215.901 123.137 C 216.470 123.624,218.277 124.319,218.059 123.966 C 217.949 123.788,217.340 123.461,216.705 123.240 C 216.071 123.019,215.709 122.972,215.901 123.137 M201.765 125.268 C 201.089 126.201,200.474 127.125,200.398 127.321 C 200.209 127.813,202.487 124.971,202.903 124.196 C 203.503 123.081,203.022 123.533,201.765 125.268 M218.929 124.446 C 218.929 124.544,219.411 124.874,220.000 125.179 C 220.589 125.483,221.071 125.652,221.071 125.554 C 221.071 125.456,220.589 125.126,220.000 124.821 C 219.411 124.517,218.929 124.348,218.929 124.446 M150.665 126.755 C 150.201 127.131,149.902 127.501,150.000 127.578 C 150.098 127.655,150.566 127.347,151.039 126.894 C 152.080 125.898,151.835 125.806,150.665 126.755 M222.857 126.847 C 223.752 127.719,224.205 127.880,223.766 127.169 C 223.637 126.960,223.179 126.606,222.748 126.383 C 222.038 126.014,222.048 126.058,222.857 126.847 M174.656 128.363 C 175.316 129.229,177.837 131.072,178.357 131.070 C 178.573 131.069,178.188 130.732,177.500 130.319 C 176.813 129.907,175.774 129.144,175.192 128.624 C 174.610 128.104,174.369 127.987,174.656 128.363 M185.982 128.473 C 186.621 128.552,187.665 128.552,188.304 128.473 C 188.942 128.393,188.420 128.329,187.143 128.329 C 185.866 128.329,185.344 128.393,185.982 128.473 M197.679 129.517 L 196.250 130.792 197.946 129.621 C 198.879 128.977,199.643 128.397,199.643 128.332 C 199.643 127.966,198.941 128.389,197.679 129.517 M150.770 129.107 C 150.769 129.304,150.985 130.027,151.250 130.714 C 151.515 131.402,151.736 131.723,151.742 131.429 C 151.749 131.134,151.533 130.411,151.263 129.821 C 150.993 129.232,150.771 128.911,150.770 129.107 M146.320 130.531 C 146.646 131.216,146.977 131.713,147.055 131.636 C 147.218 131.472,146.134 129.286,145.889 129.286 C 145.799 129.286,145.993 129.846,146.320 130.531 M178.929 131.277 C 178.929 131.519,180.784 132.192,180.961 132.016 C 181.042 131.935,180.618 131.697,180.018 131.488 C 179.419 131.280,178.929 131.185,178.929 131.277 M272.967 133.124 C 275.483 133.186,279.501 133.185,281.896 133.124 C 284.291 133.062,282.232 133.012,277.321 133.012 C 272.411 133.012,270.451 133.063,272.967 133.124 M152.260 136.607 C 152.262 137.982,152.326 138.501,152.403 137.760 C 152.481 137.019,152.480 135.894,152.401 135.260 C 152.322 134.626,152.258 135.232,152.260 136.607 M221.546 136.607 C 221.547 137.982,221.612 138.501,221.689 137.760 C 221.767 137.019,221.765 135.894,221.686 135.260 C 221.607 134.626,221.544 135.232,221.546 136.607 M84.661 139.981 C 84.327 140.193,84.705 140.236,85.733 140.105 C 86.607 139.993,87.388 139.843,87.470 139.772 C 87.805 139.481,85.139 139.679,84.661 139.981 M221.846 140.179 C 221.841 140.571,221.974 141.214,222.143 141.607 C 222.534 142.517,222.534 141.578,222.143 140.357 C 221.913 139.639,221.855 139.604,221.846 140.179 M143.571 146.250 C 142.704 147.134,142.074 147.857,142.173 147.857 C 142.271 147.857,143.061 147.134,143.929 146.250 C 144.796 145.366,145.426 144.643,145.327 144.643 C 145.229 144.643,144.439 145.366,143.571 146.250 M149.154 146.626 C 148.601 147.499,147.160 149.124,145.950 150.238 C 144.740 151.351,144.232 151.927,144.821 151.517 C 146.743 150.181,150.708 145.589,150.296 145.177 C 150.220 145.101,149.706 145.753,149.154 146.626 M230.000 146.250 C 230.666 146.938,231.292 147.500,231.390 147.500 C 231.488 147.500,231.023 146.938,230.357 146.250 C 229.691 145.563,229.065 145.000,228.967 145.000 C 228.869 145.000,229.334 145.563,230.000 146.250 M225.020 147.321 C 225.837 148.545,227.987 150.741,229.107 151.496 C 229.710 151.902,229.522 151.648,228.677 150.914 C 227.851 150.197,226.583 148.935,225.859 148.109 C 225.136 147.283,224.758 146.929,225.020 147.321 M142.143 152.857 C 141.455 153.234,141.021 153.548,141.178 153.556 C 141.557 153.576,143.571 152.529,143.571 152.312 C 143.571 152.079,143.551 152.086,142.143 152.857 M124.512 152.781 C 124.416 152.935,124.608 153.072,124.937 153.086 C 125.266 153.100,125.857 153.226,126.250 153.366 C 126.713 153.531,126.650 153.428,126.071 153.073 C 125.045 152.443,124.754 152.389,124.512 152.781 M247.857 153.036 C 246.827 153.625,247.190 153.763,248.261 153.190 C 248.790 152.906,249.129 152.929,249.576 153.279 C 250.117 153.702,250.129 153.686,249.688 153.125 C 249.105 152.381,249.010 152.376,247.857 153.036 M298.776 153.571 C 298.908 154.063,299.164 154.705,299.346 155.000 C 299.576 155.372,299.604 155.263,299.438 154.643 C 299.307 154.152,299.050 153.509,298.868 153.214 C 298.638 152.842,298.610 152.951,298.776 153.571 M234.730 154.285 C 235.073 154.500,236.198 154.743,237.230 154.826 L 239.107 154.976 237.442 154.665 C 236.527 154.494,235.402 154.251,234.942 154.124 C 234.234 153.929,234.202 153.954,234.730 154.285 M85.774 155.339 C 85.565 155.938,85.470 156.429,85.563 156.429 C 85.804 156.429,86.478 154.573,86.301 154.397 C 86.220 154.316,85.983 154.740,85.774 155.339 M129.643 154.625 C 130.535 154.929,132.751 155.118,132.470 154.867 C 132.388 154.794,131.518 154.642,130.536 154.528 C 129.331 154.389,129.041 154.421,129.643 154.625 M136.429 154.643 C 135.208 154.900,135.204 154.906,136.250 154.928 C 136.839 154.940,137.643 154.812,138.036 154.643 C 138.895 154.274,138.182 154.274,136.429 154.643 M187.679 154.616 C 189.839 154.769,192.330 154.996,193.214 155.119 C 194.598 155.311,194.672 155.292,193.750 154.982 C 193.161 154.785,190.670 154.558,188.214 154.480 L 183.750 154.337 187.679 154.616 M242.500 154.643 C 241.279 154.900,241.275 154.906,242.321 154.928 C 242.911 154.940,243.714 154.812,244.107 154.643 C 244.966 154.274,244.253 154.274,242.500 154.643 M181.701 154.895 C 182.145 154.981,182.788 154.978,183.129 154.888 C 183.471 154.799,183.107 154.729,182.321 154.733 C 181.536 154.737,181.256 154.810,181.701 154.895 M121.947 157.176 C 121.633 157.784,121.439 158.344,121.517 158.422 C 121.594 158.499,121.925 158.002,122.252 157.317 C 122.986 155.777,122.732 155.659,121.947 157.176 M174.732 156.440 C 173.536 156.920,173.760 157.165,175.000 156.732 C 175.589 156.527,176.071 156.294,176.071 156.215 C 176.071 156.003,175.637 156.076,174.732 156.440 M198.214 156.368 C 198.509 156.550,199.152 156.807,199.643 156.938 C 200.263 157.104,200.372 157.076,200.000 156.846 C 199.705 156.664,199.063 156.408,198.571 156.276 C 197.951 156.110,197.842 156.138,198.214 156.368 M116.844 157.337 C 116.245 158.650,116.360 158.930,117.007 157.736 C 117.309 157.179,117.489 156.656,117.407 156.574 C 117.326 156.492,117.072 156.836,116.844 157.337 M201.458 157.633 C 201.826 157.962,203.929 158.928,203.929 158.768 C 203.929 158.563,201.949 157.500,201.565 157.500 C 201.425 157.500,201.376 157.560,201.458 157.633 M205.000 159.430 C 205.000 159.528,205.723 160.106,206.607 160.714 C 207.491 161.322,208.214 161.740,208.214 161.641 C 208.214 161.543,207.491 160.965,206.607 160.357 C 205.723 159.749,205.000 159.332,205.000 159.430 M253.052 160.089 C 253.185 160.531,253.442 161.050,253.621 161.242 C 253.801 161.434,253.767 161.072,253.546 160.438 C 253.094 159.141,252.676 158.846,253.052 160.089 M120.058 161.265 C 119.460 162.579,119.574 162.859,120.221 161.665 C 120.523 161.107,120.703 160.584,120.622 160.503 C 120.540 160.421,120.286 160.764,120.058 161.265 M209.438 162.765 C 210.013 163.401,210.562 163.842,210.658 163.746 C 210.755 163.650,210.766 163.531,210.685 163.482 C 210.603 163.433,210.054 162.992,209.464 162.501 L 208.393 161.610 209.438 162.765 M118.611 165.040 C 118.391 165.671,118.274 166.250,118.350 166.326 C 118.426 166.403,118.669 165.949,118.889 165.317 C 119.109 164.686,119.226 164.107,119.150 164.031 C 119.074 163.955,118.831 164.409,118.611 165.040 M160.688 166.194 C 159.986 167.011,158.967 168.321,158.422 169.107 L 157.432 170.536 158.448 169.288 C 159.007 168.602,160.169 167.276,161.031 166.342 C 161.893 165.407,162.455 164.658,162.281 164.676 C 162.107 164.695,161.390 165.378,160.688 166.194 M163.909 169.196 L 162.679 170.536 164.018 169.305 C 165.264 168.159,165.521 167.857,165.249 167.857 C 165.189 167.857,164.586 168.460,163.909 169.196 M215.357 169.286 C 215.777 169.875,216.200 170.357,216.299 170.357 C 216.397 170.357,216.134 169.875,215.714 169.286 C 215.295 168.696,214.871 168.214,214.773 168.214 C 214.675 168.214,214.938 168.696,215.357 169.286 M256.663 170.179 C 256.783 170.964,256.940 171.674,257.012 171.756 C 257.282 172.063,257.080 170.150,256.769 169.464 C 256.543 168.966,256.511 169.183,256.663 170.179 M116.964 170.357 C 116.829 170.975,116.792 171.554,116.883 171.645 C 116.974 171.736,117.151 171.297,117.277 170.670 C 117.575 169.181,117.286 168.892,116.964 170.357 M111.990 171.276 C 111.858 171.799,111.820 172.296,111.904 172.380 C 111.988 172.464,112.165 172.105,112.296 171.582 C 112.427 171.058,112.466 170.561,112.382 170.477 C 112.298 170.393,112.121 170.752,111.990 171.276 M156.607 171.786 C 156.302 172.375,156.133 172.857,156.232 172.857 C 156.330 172.857,156.660 172.375,156.964 171.786 C 157.269 171.196,157.438 170.714,157.340 170.714 C 157.242 170.714,156.912 171.196,156.607 171.786 M217.764 173.094 C 218.503 174.501,219.158 175.602,219.220 175.540 C 219.378 175.384,217.680 172.119,216.989 171.250 C 216.677 170.857,217.026 171.687,217.764 173.094 M122.143 174.176 C 122.634 174.526,124.000 175.693,125.179 176.769 L 127.321 178.727 125.444 176.760 C 124.411 175.679,123.045 174.512,122.408 174.167 C 121.292 173.563,121.283 173.563,122.143 174.176 M154.782 175.217 C 154.486 175.926,154.309 176.570,154.388 176.650 C 154.467 176.729,154.785 176.149,155.094 175.361 C 155.794 173.580,155.519 173.453,154.782 175.217 M185.446 174.546 C 186.183 174.623,187.388 174.623,188.125 174.546 C 188.862 174.469,188.259 174.406,186.786 174.406 C 185.313 174.406,184.710 174.469,185.446 174.546 M295.797 175.357 C 295.797 176.045,295.871 176.326,295.960 175.982 C 296.050 175.638,296.050 175.076,295.960 174.732 C 295.871 174.388,295.797 174.670,295.797 175.357 M303.654 176.071 C 303.654 176.759,303.728 177.040,303.818 176.696 C 303.907 176.353,303.907 175.790,303.818 175.446 C 303.728 175.103,303.654 175.384,303.654 176.071 M248.376 176.875 L 246.964 178.393 248.482 176.981 C 249.894 175.668,250.164 175.357,249.894 175.357 C 249.836 175.357,249.153 176.040,248.376 176.875 M114.821 176.071 C 115.214 176.240,115.777 176.378,116.071 176.378 C 116.409 176.378,116.343 176.265,115.893 176.071 C 115.500 175.903,114.938 175.764,114.643 175.764 C 114.305 175.764,114.371 175.878,114.821 176.071 M71.154 178.929 C 71.154 179.616,71.228 179.897,71.318 179.554 C 71.407 179.210,71.407 178.647,71.318 178.304 C 71.228 177.960,71.154 178.241,71.154 178.929 M153.279 179.351 C 153.067 180.186,152.955 180.931,153.030 181.007 C 153.106 181.082,153.349 180.468,153.571 179.643 C 153.794 178.817,153.906 178.072,153.820 177.987 C 153.735 177.901,153.491 178.515,153.279 179.351 M304.036 179.643 C 304.036 180.723,304.103 181.165,304.184 180.625 C 304.266 180.085,304.266 179.201,304.184 178.661 C 304.103 178.121,304.036 178.563,304.036 179.643 M120.714 178.683 C 120.714 178.745,121.237 179.267,121.875 179.844 L 123.036 180.893 121.987 179.732 C 121.009 178.650,120.714 178.407,120.714 178.683 M251.942 179.732 L 250.893 180.893 252.054 179.844 C 252.692 179.267,253.214 178.745,253.214 178.683 C 253.214 178.407,252.920 178.650,251.942 179.732 M245.058 181.622 C 244.460 182.936,244.574 183.216,245.221 182.022 C 245.523 181.464,245.703 180.941,245.622 180.860 C 245.540 180.778,245.286 181.121,245.058 181.622 M296.543 185.000 C 296.543 186.277,296.608 186.799,296.687 186.161 C 296.766 185.522,296.766 184.478,296.687 183.839 C 296.608 183.201,296.543 183.723,296.543 185.000 M304.403 185.536 C 304.404 186.911,304.469 187.429,304.546 186.688 C 304.624 185.947,304.622 184.822,304.543 184.188 C 304.465 183.554,304.401 184.161,304.403 185.536 M221.607 189.643 C 221.607 193.005,221.712 195.385,221.839 194.932 C 221.967 194.478,222.072 192.098,222.072 189.643 C 222.072 187.188,221.967 184.807,221.839 184.354 C 221.712 183.900,221.607 186.280,221.607 189.643 M129.821 189.643 C 129.821 192.612,129.926 194.671,130.054 194.218 C 130.181 193.764,130.286 191.705,130.286 189.643 C 130.286 187.580,130.181 185.522,130.054 185.068 C 129.926 184.615,129.821 186.673,129.821 189.643 M77.971 186.786 C 77.971 188.063,78.036 188.585,78.115 187.946 C 78.195 187.308,78.195 186.263,78.115 185.625 C 78.036 184.987,77.971 185.509,77.971 186.786 M151.916 189.464 C 151.917 191.429,151.977 192.187,152.049 191.149 C 152.122 190.111,152.121 188.504,152.048 187.577 C 151.974 186.651,151.915 187.500,151.916 189.464 M243.702 189.464 C 243.703 191.429,243.763 192.187,243.835 191.149 C 243.908 190.111,243.907 188.504,243.833 187.577 C 243.760 186.651,243.701 187.500,243.702 189.464 M156.198 189.464 C 156.197 191.232,156.258 192.000,156.332 191.171 C 156.407 190.343,156.408 188.896,156.334 187.957 C 156.261 187.018,156.199 187.696,156.198 189.464 M217.583 187.500 C 217.583 188.188,217.656 188.469,217.746 188.125 C 217.836 187.781,217.836 187.219,217.746 186.875 C 217.656 186.531,217.583 186.813,217.583 187.500 M247.959 189.821 C 247.962 190.804,248.031 191.163,248.113 190.620 C 248.196 190.077,248.193 189.274,248.109 188.834 C 248.024 188.395,247.957 188.839,247.959 189.821 M125.797 189.643 C 125.797 190.330,125.871 190.612,125.960 190.268 C 126.050 189.924,126.050 189.362,125.960 189.018 C 125.871 188.674,125.797 188.955,125.797 189.643 M304.403 190.893 C 304.404 192.268,304.469 192.787,304.546 192.046 C 304.624 191.305,304.622 190.180,304.543 189.546 C 304.465 188.912,304.401 189.518,304.403 190.893 M296.551 191.607 C 296.552 193.179,296.615 193.777,296.691 192.937 C 296.766 192.097,296.765 190.811,296.688 190.080 C 296.611 189.348,296.550 190.036,296.551 191.607 M217.590 191.607 C 217.594 192.393,217.667 192.672,217.753 192.228 C 217.838 191.784,217.835 191.141,217.745 190.799 C 217.656 190.458,217.586 190.821,217.590 191.607 M156.511 194.286 C 156.511 194.973,156.585 195.254,156.675 194.911 C 156.765 194.567,156.765 194.004,156.675 193.661 C 156.585 193.317,156.511 193.598,156.511 194.286 M77.971 196.071 C 77.971 197.348,78.036 197.871,78.115 197.232 C 78.195 196.594,78.195 195.549,78.115 194.911 C 78.036 194.272,77.971 194.795,77.971 196.071 M216.964 195.714 C 216.829 196.332,216.792 196.911,216.883 197.002 C 216.974 197.093,217.151 196.654,217.277 196.027 C 217.402 195.399,217.439 194.820,217.358 194.739 C 217.277 194.658,217.100 195.097,216.964 195.714 M304.036 196.786 C 304.036 197.866,304.103 198.308,304.184 197.768 C 304.266 197.228,304.266 196.344,304.184 195.804 C 304.103 195.263,304.036 195.705,304.036 196.786 M128.286 198.044 C 127.859 198.923,127.584 199.643,127.676 199.643 C 127.918 199.643,129.361 196.742,129.199 196.580 C 129.125 196.505,128.714 197.164,128.286 198.044 M153.075 198.929 C 153.197 199.616,153.441 200.420,153.617 200.714 C 153.997 201.348,153.632 199.497,153.159 198.393 C 152.953 197.911,152.926 198.085,153.075 198.929 M252.321 199.643 C 253.089 200.429,253.797 201.071,253.895 201.071 C 253.993 201.071,253.446 200.429,252.679 199.643 C 251.911 198.857,251.203 198.214,251.105 198.214 C 251.007 198.214,251.554 198.857,252.321 199.643 M246.397 199.940 C 246.589 200.300,247.027 200.822,247.370 201.101 C 247.756 201.414,247.670 201.165,247.144 200.446 C 246.206 199.165,245.854 198.927,246.397 199.940 M220.040 200.754 C 219.820 201.385,219.702 201.964,219.779 202.040 C 219.855 202.117,220.097 201.663,220.317 201.032 C 220.537 200.401,220.655 199.822,220.579 199.745 C 220.502 199.669,220.260 200.123,220.040 200.754 M295.797 202.143 C 295.797 202.830,295.871 203.112,295.960 202.768 C 296.050 202.424,296.050 201.862,295.960 201.518 C 295.871 201.174,295.797 201.455,295.797 202.143 M154.286 202.637 C 154.286 203.020,155.348 205.000,155.554 205.000 C 155.652 205.000,155.467 204.478,155.142 203.839 C 154.479 202.536,154.286 202.264,154.286 202.637 M250.065 203.773 C 250.396 204.153,251.199 204.768,251.851 205.140 C 253.249 205.938,252.881 205.542,250.893 204.111 C 250.062 203.513,249.716 203.371,250.065 203.773 M156.238 206.763 C 156.537 207.340,156.943 207.912,157.141 208.035 C 157.339 208.157,157.164 207.685,156.751 206.986 C 155.846 205.453,155.478 205.293,156.238 206.763 M255.357 206.964 C 255.848 207.245,256.491 207.474,256.786 207.473 C 257.080 207.473,256.781 207.237,256.120 206.950 C 254.599 206.290,254.191 206.298,255.357 206.964 M117.411 207.171 C 116.719 207.574,116.609 208.463,117.148 209.286 C 117.401 209.672,117.441 209.516,117.290 208.729 C 117.117 207.826,117.226 207.567,117.915 207.235 C 118.374 207.015,118.589 206.828,118.393 206.821 C 118.196 206.813,117.754 206.971,117.411 207.171 M256.494 209.351 C 256.281 210.186,256.169 210.931,256.245 211.007 C 256.320 211.082,256.563 210.468,256.786 209.643 C 257.008 208.817,257.120 208.072,257.034 207.987 C 256.949 207.901,256.706 208.515,256.494 209.351 M208.737 211.161 L 206.964 213.036 208.839 211.263 C 210.582 209.617,210.878 209.286,210.612 209.286 C 210.555 209.286,209.711 210.129,208.737 211.161 M214.950 210.446 C 214.504 211.085,213.171 212.652,211.990 213.929 L 209.842 216.250 211.867 214.316 C 213.722 212.545,216.360 209.286,215.939 209.286 C 215.842 209.286,215.397 209.808,214.950 210.446 M165.000 211.250 C 165.666 211.938,166.292 212.500,166.390 212.500 C 166.488 212.500,166.023 211.938,165.357 211.250 C 164.691 210.563,164.065 210.000,163.967 210.000 C 163.869 210.000,164.334 210.563,165.000 211.250 M113.419 212.857 C 113.550 213.348,113.807 213.991,113.989 214.286 C 114.219 214.658,114.247 214.549,114.081 213.929 C 113.950 213.438,113.693 212.795,113.511 212.500 C 113.281 212.128,113.253 212.237,113.419 212.857 M118.368 213.393 C 118.508 213.982,118.776 214.621,118.964 214.813 C 119.151 215.005,119.116 214.603,118.885 213.920 C 118.345 212.321,118.040 212.011,118.368 213.393 M161.964 214.286 C 162.932 215.268,163.804 216.071,163.902 216.071 C 164.000 216.071,163.289 215.268,162.321 214.286 C 161.354 213.304,160.482 212.500,160.384 212.500 C 160.286 212.500,160.997 213.304,161.964 214.286 M254.981 214.157 C 254.784 214.675,254.689 215.165,254.770 215.246 C 254.851 215.327,255.088 214.903,255.297 214.304 C 255.762 212.972,255.481 212.841,254.981 214.157 M300.937 215.907 C 300.814 216.226,300.728 216.755,300.745 217.083 C 300.762 217.410,300.917 217.205,301.090 216.625 C 301.427 215.498,301.308 214.940,300.937 215.907 M120.185 218.107 C 120.720 219.388,121.071 219.966,121.071 219.567 C 121.071 219.182,119.986 216.786,119.812 216.786 C 119.714 216.786,119.882 217.380,120.185 218.107 M253.272 218.408 C 252.674 219.721,252.788 220.002,253.435 218.808 C 253.737 218.250,253.918 217.727,253.836 217.645 C 253.754 217.564,253.501 217.907,253.272 218.408 M166.584 218.177 C 166.717 218.392,167.157 218.745,167.563 218.962 C 168.091 219.245,168.232 219.246,168.059 218.966 C 167.926 218.751,167.485 218.398,167.080 218.181 C 166.551 217.898,166.411 217.897,166.584 218.177 M183.308 220.256 C 183.851 220.338,184.655 220.336,185.094 220.251 C 185.533 220.167,185.089 220.099,184.107 220.102 C 183.125 220.105,182.766 220.174,183.308 220.256 M189.023 220.256 C 189.566 220.338,190.369 220.336,190.808 220.251 C 191.248 220.167,190.804 220.099,189.821 220.102 C 188.839 220.105,188.480 220.174,189.023 220.256 M173.214 221.964 C 173.705 222.245,174.268 222.475,174.464 222.475 C 174.661 222.475,174.420 222.245,173.929 221.964 C 173.438 221.684,172.875 221.454,172.679 221.454 C 172.482 221.454,172.723 221.684,173.214 221.964 M256.487 222.337 C 255.888 223.650,256.002 223.930,256.649 222.736 C 256.952 222.179,257.132 221.656,257.050 221.574 C 256.969 221.492,256.715 221.836,256.487 222.337 M177.679 223.571 C 178.071 223.740,178.714 223.874,179.107 223.868 C 179.681 223.859,179.646 223.801,178.929 223.571 C 177.707 223.180,176.768 223.180,177.679 223.571 M195.179 223.571 C 194.728 223.765,194.662 223.878,195.000 223.878 C 195.295 223.878,195.857 223.740,196.250 223.571 C 196.700 223.378,196.766 223.264,196.429 223.264 C 196.134 223.264,195.571 223.403,195.179 223.571 M123.393 224.643 C 123.698 225.232,124.027 225.714,124.125 225.714 C 124.224 225.714,124.055 225.232,123.750 224.643 C 123.445 224.054,123.116 223.571,123.017 223.571 C 122.919 223.571,123.088 224.054,123.393 224.643 M239.375 224.175 C 239.719 224.265,240.281 224.265,240.625 224.175 C 240.969 224.085,240.688 224.011,240.000 224.011 C 239.313 224.011,239.031 224.085,239.375 224.175 M139.643 225.179 C 141.273 225.807,141.915 225.797,140.536 225.166 C 139.946 224.896,139.223 224.680,138.929 224.686 C 138.634 224.692,138.955 224.914,139.643 225.179 M246.229 225.365 C 247.199 225.744,248.050 225.998,248.119 225.929 C 248.289 225.759,245.453 224.639,244.903 224.660 C 244.662 224.669,245.258 224.986,246.229 225.365 M127.500 225.373 C 127.109 225.638,127.253 225.671,128.036 225.496 C 129.349 225.203,129.634 224.998,128.720 225.005 C 128.344 225.008,127.795 225.174,127.500 225.373 M232.946 225.368 C 231.750 225.849,231.974 226.093,233.214 225.661 C 233.804 225.455,234.286 225.223,234.286 225.144 C 234.286 224.932,233.851 225.005,232.946 225.368 M227.500 228.972 C 226.255 230.063,226.255 230.065,227.400 229.303 C 228.032 228.882,228.645 228.385,228.760 228.198 C 229.105 227.640,228.819 227.816,227.500 228.972 M146.940 229.643 C 148.821 231.841,149.079 232.085,148.644 231.250 C 148.440 230.857,147.664 229.973,146.919 229.286 L 145.566 228.036 146.940 229.643 M133.131 228.830 C 133.773 228.910,134.738 228.908,135.274 228.827 C 135.811 228.745,135.286 228.680,134.107 228.682 C 132.929 228.684,132.489 228.751,133.131 228.830 M238.831 228.829 C 239.465 228.908,240.590 228.909,241.331 228.832 C 242.072 228.755,241.554 228.690,240.179 228.689 C 238.804 228.687,238.197 228.750,238.831 228.829 M149.821 233.571 C 150.126 234.161,150.456 234.643,150.554 234.643 C 150.652 234.643,150.483 234.161,150.179 233.571 C 149.874 232.982,149.544 232.500,149.446 232.500 C 149.348 232.500,149.517 232.982,149.821 233.571 M294.344 235.551 C 293.745 236.864,293.860 237.145,294.507 235.951 C 294.809 235.393,294.989 234.870,294.907 234.788 C 294.826 234.707,294.572 235.050,294.344 235.551 M285.772 235.908 C 285.174 237.221,285.288 237.502,285.935 236.308 C 286.237 235.750,286.418 235.227,286.336 235.145 C 286.254 235.064,286.001 235.407,285.772 235.908 M151.479 237.143 C 151.479 237.438,151.617 238.000,151.786 238.393 C 151.979 238.843,152.093 238.909,152.093 238.571 C 152.093 238.277,151.955 237.714,151.786 237.321 C 151.592 236.871,151.479 236.805,151.479 237.143 M292.321 240.000 C 292.017 240.589,291.848 241.071,291.946 241.071 C 292.044 241.071,292.374 240.589,292.679 240.000 C 292.983 239.411,293.152 238.929,293.054 238.929 C 292.956 238.929,292.626 239.411,292.321 240.000 M152.226 241.071 C 152.226 241.759,152.299 242.040,152.389 241.696 C 152.479 241.353,152.479 240.790,152.389 240.446 C 152.299 240.103,152.226 240.384,152.226 241.071 M221.546 242.679 C 221.547 244.054,221.612 244.572,221.689 243.831 C 221.767 243.090,221.765 241.965,221.686 241.331 C 221.607 240.697,221.544 241.304,221.546 242.679 M290.893 242.857 C 290.588 243.446,290.419 243.929,290.517 243.929 C 290.616 243.929,290.945 243.446,291.250 242.857 C 291.555 242.268,291.724 241.786,291.625 241.786 C 291.527 241.786,291.198 242.268,290.893 242.857 M221.810 246.107 C 221.782 246.765,222.522 249.026,222.704 248.843 C 222.771 248.776,222.603 248.005,222.330 247.129 C 222.057 246.253,221.823 245.793,221.810 246.107 M185.634 246.333 C 186.474 246.409,187.760 246.408,188.492 246.331 C 189.223 246.254,188.536 246.193,186.964 246.194 C 185.393 246.195,184.794 246.258,185.634 246.333 M181.607 246.802 C 181.109 247.028,181.326 247.060,182.321 246.908 C 183.107 246.789,183.817 246.632,183.899 246.560 C 184.206 246.289,182.293 246.492,181.607 246.802 M151.148 248.805 C 150.928 249.522,150.889 249.964,151.063 249.787 C 151.412 249.429,151.955 247.500,151.706 247.500 C 151.619 247.500,151.368 248.087,151.148 248.805 M178.125 248.061 C 176.740 248.813,176.897 249.072,178.304 248.357 C 179.650 247.672,179.888 247.494,179.435 247.514 C 179.254 247.522,178.665 247.768,178.125 248.061 M194.315 247.633 C 194.683 247.962,196.786 248.928,196.786 248.768 C 196.786 248.563,194.806 247.500,194.422 247.500 C 194.282 247.500,194.234 247.560,194.315 247.633 M197.143 248.991 C 197.241 249.078,198.286 250.019,199.464 251.081 L 201.607 253.013 200.000 251.300 C 199.116 250.359,198.071 249.418,197.679 249.210 C 197.286 249.002,197.045 248.903,197.143 248.991 M173.799 251.413 C 172.888 252.387,172.143 253.298,172.143 253.437 C 172.143 253.576,172.194 253.624,172.257 253.542 C 172.319 253.460,173.145 252.549,174.091 251.518 C 175.038 250.487,175.732 249.643,175.633 249.643 C 175.535 249.643,174.710 250.440,173.799 251.413 M223.353 251.320 C 223.377 252.011,223.522 252.333,223.720 252.135 C 223.919 251.937,223.904 251.488,223.681 250.994 C 223.339 250.235,223.316 250.257,223.353 251.320 M151.786 253.034 C 151.786 253.273,156.115 255.433,156.275 255.273 C 156.347 255.201,155.366 254.629,154.096 254.003 C 152.825 253.376,151.786 252.940,151.786 253.034 M219.286 254.286 C 217.813 255.052,216.732 255.687,216.884 255.697 C 217.264 255.721,222.143 253.248,222.143 253.031 C 222.143 252.790,222.261 252.738,219.286 254.286 M158.214 256.250 C 158.705 256.531,159.268 256.760,159.464 256.760 C 159.661 256.760,159.420 256.531,158.929 256.250 C 158.438 255.969,157.875 255.740,157.679 255.740 C 157.482 255.740,157.723 255.969,158.214 256.250 M210.357 258.036 C 209.670 258.300,209.348 258.522,209.643 258.528 C 209.938 258.534,210.661 258.318,211.250 258.049 C 212.629 257.417,211.988 257.408,210.357 258.036 M268.376 261.875 L 266.964 263.393 268.482 261.981 C 269.894 260.668,270.164 260.357,269.894 260.357 C 269.836 260.357,269.153 261.040,268.376 261.875 M109.464 265.357 C 111.815 267.714,113.819 269.643,113.917 269.643 C 114.016 269.643,112.172 267.714,109.821 265.357 C 107.470 263.000,105.467 261.071,105.368 261.071 C 105.270 261.071,107.113 263.000,109.464 265.357 M172.304 264.258 C 172.117 264.440,171.482 264.657,170.893 264.740 L 169.821 264.893 170.938 264.946 C 171.554 264.976,172.255 264.760,172.500 264.464 C 172.987 263.878,172.846 263.731,172.304 264.258 M275.338 265.625 L 274.107 266.964 275.446 265.734 C 276.693 264.588,276.950 264.286,276.677 264.286 C 276.618 264.286,276.015 264.888,275.338 265.625 M261.594 268.661 L 259.821 270.536 261.696 268.763 C 263.439 267.117,263.735 266.786,263.469 266.786 C 263.412 266.786,262.568 267.629,261.594 268.661 M270.527 270.804 L 267.679 273.750 270.625 270.901 C 273.362 268.255,273.734 267.857,273.474 267.857 C 273.420 267.857,272.094 269.183,270.527 270.804 M104.643 271.607 C 106.501 273.473,108.102 275.000,108.200 275.000 C 108.298 275.000,106.858 273.473,105.000 271.607 C 103.142 269.741,101.541 268.214,101.443 268.214 C 101.344 268.214,102.785 269.741,104.643 271.607 M265.338 275.625 L 264.107 276.964 265.446 275.734 C 266.693 274.588,266.950 274.286,266.677 274.286 C 266.618 274.286,266.015 274.888,265.338 275.625 M225.238 289.881 C 224.467 290.652,225.758 291.036,226.786 290.341 C 227.178 290.075,227.044 290.043,226.286 290.220 C 225.551 290.391,225.324 290.342,225.504 290.052 C 225.780 289.605,225.618 289.501,225.238 289.881 M137.500 294.107 C 137.991 294.388,138.554 294.618,138.750 294.618 C 138.946 294.618,138.705 294.388,138.214 294.107 C 137.723 293.826,137.161 293.597,136.964 293.597 C 136.768 293.597,137.009 293.826,137.500 294.107 M212.583 296.786 C 212.583 297.473,212.656 297.754,212.746 297.411 C 212.836 297.067,212.836 296.504,212.746 296.161 C 212.656 295.817,212.583 296.098,212.583 296.786 M175.446 297.032 C 175.790 297.122,176.353 297.122,176.696 297.032 C 177.040 296.942,176.759 296.869,176.071 296.869 C 175.384 296.869,175.103 296.942,175.446 297.032 M179.203 297.402 C 179.845 297.481,180.809 297.480,181.346 297.398 C 181.882 297.317,181.357 297.252,180.179 297.254 C 179.000 297.256,178.561 297.322,179.203 297.402 M186.696 297.758 C 187.335 297.838,188.379 297.838,189.018 297.758 C 189.656 297.679,189.134 297.614,187.857 297.614 C 186.580 297.614,186.058 297.679,186.696 297.758 M182.931 305.264 C 184.248 305.333,186.498 305.333,187.931 305.265 C 189.364 305.198,188.286 305.141,185.536 305.141 C 182.786 305.140,181.614 305.196,182.931 305.264 M226.786 305.536 C 227.277 305.816,227.839 306.046,228.036 306.046 C 228.232 306.046,227.991 305.816,227.500 305.536 C 227.009 305.255,226.446 305.025,226.250 305.025 C 226.054 305.025,226.295 305.255,226.786 305.536 " stroke="none" fill="#7c7c7c" fill-rule="evenodd"></path></g></svg>