<?xml version="1.0" encoding="UTF-8"?><svg id="Layer_1" xmlns="http://www.w3.org/2000/svg" xmlns:xlink="http://www.w3.org/1999/xlink" viewBox="0 0 100 100"><defs><style>.cls-1{fill:none;}.cls-2{clip-path:url(#clippath);}.cls-3{fill:#231f20;}</style><clipPath id="clippath"><rect class="cls-1" x=".2" y=".28" width="99.61" height="99.59"/></clipPath></defs><g class="cls-2"><path class="cls-3" d="M73.24,11.8v4.97c.04,1.95,1.45,3.41,3.29,3.42,1.85,.01,3.32-1.44,3.33-3.37,.03-3.28,.03-6.56,0-9.85-.02-1.93-1.49-3.38-3.34-3.37-1.85,.01-3.26,1.47-3.28,3.42-.02,1.59,0,3.18,0,4.77m-26.56,.05c0,1.62-.01,3.25,0,4.87,.02,2.01,1.45,3.49,3.34,3.48,1.84-.01,3.27-1.47,3.29-3.42,.02-3.25,.02-6.5,0-9.74-.01-1.95-1.44-3.41-3.28-3.42-1.89-.01-3.32,1.45-3.34,3.47-.02,1.59,0,3.18,0,4.77m-19.92,.09c0-1.59,.01-3.18,0-4.77-.02-2.09-1.44-3.58-3.36-3.56-1.89,.02-3.26,1.49-3.27,3.54-.01,3.18-.01,6.36,0,9.54,0,2.02,1.42,3.51,3.3,3.51,1.88,0,3.3-1.47,3.32-3.49,.02-1.59,0-3.18,0-4.77m-9.96,1.63c-2.77,0-5.4,0-8.02,0-3.16,.01-5.24,2.11-5.25,5.29-.01,3.46,0,6.92,0,10.37,0,.3,.04,.59,.06,.88H96.43c0-4.12,.12-8.2-.05-12.26-.09-2.22-2-4.07-4.21-4.2-2.95-.16-5.92-.04-8.97-.04,0,1.1,0,2.13,0,3.15-.04,3.83-2.94,6.77-6.66,6.76-3.71-.01-6.58-2.96-6.62-6.81,0-1.02,0-2.05,0-3.07h-13.28c0,1.11,.01,2.15,0,3.18-.05,3.77-2.95,6.69-6.63,6.69-3.68,0-6.6-2.92-6.65-6.67-.01-1.06,0-2.13,0-3.22h-13.28c0,1.13,.01,2.2,0,3.26-.06,3.7-2.96,6.61-6.59,6.63-3.68,.02-6.63-2.89-6.69-6.63-.02-1.07,0-2.13,0-3.33m0-3.33c0-1.26-.02-2.36,0-3.47,.09-3.61,3.02-6.48,6.62-6.49,3.6,0,6.55,2.85,6.65,6.45,.03,1.13,0,2.27,0,3.45h13.28c0-.98,0-1.97,0-2.96,.02-3.99,2.88-6.97,6.68-6.95,3.75,.02,6.57,2.98,6.6,6.93,0,.96,0,1.93,0,2.96h13.28c0-1.09-.01-2.15,0-3.22,.05-3.75,2.96-6.68,6.64-6.67,3.68,0,6.58,2.92,6.63,6.69,.01,1.04,0,2.07,0,3.27h1.02c2.39,0,4.77-.01,7.16,0,4.8,.04,8.4,3.62,8.41,8.42,.02,14.21,0,28.43,0,42.64,0,1.3-.64,2.06-1.67,2.06-1.03,0-1.65-.76-1.65-2.08,0-8.82,0-17.64,0-26.45v-1.28H3.52v1.07c0,16.6,0,33.2,0,49.8,0,3.5,2.03,5.51,5.55,5.51,15.01,0,30.02,0,45.03,0,.35,0,.7-.03,1.04,.02,.9,.14,1.42,.68,1.49,1.59,.06,.85-.6,1.58-1.49,1.69-.31,.04-.62,.02-.93,.02-15.04,0-30.08,0-45.13,0-5.39,0-8.87-3.49-8.87-8.9,0-21.75,0-43.5,0-65.25C.2,13.74,3.69,10.25,9.02,10.24c2.55,0,5.1,0,7.78,0"/><path class="cls-3" d="M96.47,78.33c-.01-10.06-8.17-18.29-18.14-18.29-10.23,0-18.38,8.15-18.37,18.37,.01,9.98,8.23,18.13,18.29,18.14,9.98,0,18.23-8.24,18.21-18.22m3.33-.09c0,11.93-9.66,21.64-21.53,21.63-12.03,0-21.62-9.65-21.63-21.73,0-11.77,9.73-21.42,21.63-21.43,11.81-.01,21.54,9.71,21.53,21.52"/><path class="cls-3" d="M16.85,50h6.51v-4.85h-6.51v4.85Zm3.28,3.4c-1.1,0-2.21,.02-3.31,0-1.92-.05-3.3-1.44-3.33-3.37-.03-1.62-.02-3.24,0-4.86,.03-1.99,1.41-3.36,3.42-3.38,2.14-.02,4.28-.02,6.42,0,2,.02,3.4,1.39,3.44,3.37,.03,1.62,.03,3.24,0,4.86-.03,1.99-1.42,3.35-3.42,3.39-1.07,.02-2.14,0-3.21,0"/><path class="cls-3" d="M43.3,45.16h-6.51v4.88h6.51v-4.88Zm-3.31,8.24c-1.07,0-2.14,.02-3.21,0-1.98-.04-3.36-1.43-3.38-3.42-.02-1.59-.02-3.17,0-4.76,.03-2.05,1.41-3.41,3.47-3.43,2.1-.02,4.21-.02,6.31,0,2.06,.02,3.46,1.38,3.49,3.42,.02,1.59,.02,3.18,0,4.76-.03,2.05-1.41,3.41-3.48,3.44-1.07,.01-2.14,0-3.21,0"/><path class="cls-3" d="M63.23,45.17h-6.51v4.86h6.51v-4.86Zm-3.32,8.23c-1.04,0-2.07,.01-3.11,0-2.06-.03-3.45-1.39-3.48-3.43-.02-1.59-.02-3.18,0-4.76,.03-2.05,1.41-3.41,3.48-3.43,2.11-.02,4.21-.02,6.31,0,2.06,.02,3.45,1.39,3.48,3.42,.02,1.59,.02,3.18,0,4.76-.03,2.05-1.41,3.4-3.48,3.43-1.07,.01-2.14,0-3.21,0"/><path class="cls-3" d="M83.11,45.16h-6.48v4.88h6.48v-4.88Zm-3.23-3.38c1.07,0,2.14-.01,3.21,0,1.99,.03,3.39,1.4,3.43,3.38,.03,1.62,.03,3.24,0,4.87-.03,1.98-1.42,3.35-3.43,3.37-2.14,.02-4.28,.02-6.42,0-2.04-.02-3.41-1.42-3.43-3.48-.02-1.55-.02-3.11,0-4.66,.02-2.11,1.4-3.45,3.53-3.48,1.04-.01,2.07,0,3.11,0"/><path class="cls-3" d="M23.35,60.11h-6.47v4.88h6.47v-4.88Zm-3.24,8.23c-1.07,0-2.14,.02-3.21,0-1.99-.03-3.39-1.41-3.42-3.39-.03-1.62-.03-3.24,0-4.87,.03-1.94,1.4-3.33,3.33-3.36,2.21-.03,4.42-.03,6.62,0,1.87,.03,3.27,1.41,3.31,3.27,.04,1.69,.04,3.38,0,5.07-.05,1.86-1.45,3.22-3.33,3.26-1.1,.03-2.21,0-3.31,0"/><path class="cls-3" d="M43.27,60.11h-6.47v4.88h6.47v-4.88Zm-3.2-3.39c1.07,0,2.14-.02,3.21,0,1.98,.04,3.36,1.42,3.39,3.41,.02,1.62,.03,3.24,0,4.86-.04,1.93-1.42,3.31-3.36,3.34-2.17,.03-4.35,.03-6.52,0-1.98-.02-3.36-1.42-3.39-3.41-.02-1.62-.03-3.24,0-4.87,.03-1.93,1.42-3.29,3.36-3.33,1.1-.02,2.21,0,3.31,0"/><path class="cls-3" d="M23.39,75.06h-6.51v4.84h6.51v-4.84Zm-3.3,8.22c-1.1,0-2.21,.03-3.31,0-1.87-.05-3.25-1.43-3.29-3.3-.03-1.69-.04-3.38,0-5.07,.04-1.82,1.42-3.2,3.24-3.23,2.24-.04,4.49-.04,6.73,0,1.87,.03,3.25,1.42,3.29,3.3,.03,1.69,.04,3.38,0,5.07-.05,1.81-1.43,3.18-3.24,3.24-1.14,.04-2.28,0-3.41,0"/><path class="cls-3" d="M36.8,79.87h6.5v-4.85h-6.5v4.85Zm3.19,3.41c-1.07,0-2.14,.02-3.21,0-1.98-.04-3.36-1.43-3.38-3.42-.02-1.59-.02-3.18,0-4.76,.03-2.05,1.41-3.41,3.47-3.43,2.11-.02,4.21-.02,6.31,0,2.06,.02,3.46,1.38,3.49,3.42,.02,1.59,.02,3.17,0,4.76-.03,2.05-1.41,3.41-3.48,3.43-1.07,.01-2.14,0-3.21,0"/><path class="cls-3" d="M56.68,60.04v4.88c.21,.09,.44,.16,.65,.27,.78,.39,1.12,1.05,.91,1.88-.21,.82-.81,1.25-1.68,1.26-1.61,.02-3.14-1.38-3.21-3.05-.07-1.83-.07-3.66,0-5.49,.06-1.7,1.46-3.03,3.19-3.06,2.21-.05,4.42-.03,6.62,0,1.06,.01,1.76,.69,1.77,1.63,.01,.97-.71,1.67-1.83,1.68-2.1,.02-4.2,0-6.42,0"/><path class="cls-3" d="M74.95,84.35c1.03-1.09,1.94-2.08,2.88-3.03,3.19-3.21,6.38-6.42,9.62-9.59,.43-.42,1.11-.8,1.68-.8,1.19-.01,1.86,1.41,1.23,2.45-.19,.32-.48,.59-.75,.85-4.32,4.33-8.65,8.65-12.97,12.98-1.42,1.42-2.06,1.42-3.45,.03-2.1-2.1-4.21-4.2-6.3-6.31-.84-.85-.9-1.74-.22-2.48,.71-.76,1.68-.75,2.55,.11,1.86,1.85,3.7,3.73,5.73,5.78"/></g></svg>