<?xml version="1.0" encoding="UTF-8"?><svg id="Layer_2" xmlns="http://www.w3.org/2000/svg" xmlns:xlink="http://www.w3.org/1999/xlink" viewBox="0 0 99.37 81.66"><defs><style>.cls-1{fill:none;}.cls-2{clip-path:url(#clippath);}.cls-3{fill:#f6cc46;}.cls-4{fill:#fff;}.cls-5{fill:#7bbf9e;}.cls-6{fill:#221f20;}</style><clipPath id="clippath"><rect class="cls-1" width="99.37" height="81.66"/></clipPath></defs><g id="Layer_1-2"><g class="cls-2"><path class="cls-6" d="M26.31,8.77h1.04c6.18,0,12.37,0,18.55-.01,.78,0,1.34,.25,1.83,.85,1.69,2.05,3.43,4.05,5.11,6.1,.37,.45,.76,.6,1.32,.59,9.63-.02,19.26-.04,28.89,.02,1.2,0,2.49,.24,3.56,.73,2.71,1.25,3.86,3.58,3.86,6.5,0,10.32,0,20.63,0,30.95v1.03c.69,0,1.28,0,1.88,0,2.88-.04,4.86-1.98,4.87-4.85,.03-12.01,.04-24.02,.03-36.04,0-.8-.16-1.66-.5-2.37-.93-1.98-2.66-2.67-4.77-2.67-9.82,.01-19.65,0-29.47,.02-.87,0-1.48-.26-2.04-.94-1.64-2.02-3.35-3.98-5-5.98-.36-.44-.74-.61-1.32-.61-5.69,.02-11.38,.01-17.07,.01-2.16,0-4.32,0-6.48,.04-1.27,.03-2.3,.62-3.15,1.54-1.32,1.43-1.25,3.18-1.15,5.07m26.58,55.57c9.99,0,19.98-.06,29.97,.03,3.7,.03,5.58-2.4,5.55-5.5-.09-11.71-.04-23.43-.04-35.14,0-.54,0-1.1-.13-1.63-.55-2.31-2.39-3.66-4.98-3.66-9.88,0-19.76-.01-29.64,.01-.85,0-1.42-.28-1.96-.93-1.7-2.08-3.44-4.12-5.19-6.14-.2-.23-.58-.45-.87-.45-7.77-.03-15.55-.05-23.32,0-2.99,.02-4.86,2.02-4.88,5.02,0,.88,0,1.75,0,2.63,0,13.49,0,26.99,.02,40.48,0,.88,.14,1.83,.49,2.62,.91,2,2.65,2.68,4.76,2.68,10.07-.01,20.14,0,30.22,0m37.66-6.72c-.05,1.02-.05,1.95-.16,2.86-.39,3.09-2.79,5.45-5.88,5.84-.41,.05-.82,.06-1.23,.06-20.25,0-40.51,0-60.76,0-2.94,0-5.23-1.17-6.51-3.86-.47-1-.7-2.21-.7-3.32-.05-14.4-.03-28.79-.03-43.19,0-4.28,2.83-7.14,7.12-7.24,.54-.01,1.09,0,1.75,0,0-.59,0-1.13,0-1.66C24.18,2.94,27.06,.03,31.23,.02,39.14,0,47.05,.02,54.96,0c.67,0,1.13,.23,1.55,.73,1.65,1.98,3.35,3.91,4.96,5.92,.56,.69,1.14,.92,2.01,.92,9.55-.03,19.1-.01,28.66-.02,2.95,0,5.22,1.18,6.51,3.86,.46,.95,.69,2.1,.7,3.16,.05,12.02,.05,24.03,.02,36.05,0,4.1-2.89,6.91-7.09,7.01-.55,.01-1.09,0-1.72,0"/><path class="cls-4" d="M52.89,64.34c-10.07,0-20.15,0-30.22,0-2.11,0-3.85-.68-4.76-2.68-.36-.79-.49-1.74-.49-2.62-.03-13.49-.02-26.99-.02-40.48,0-.88,0-1.75,0-2.63,.02-3,1.89-5,4.88-5.02,7.77-.05,15.55-.02,23.32,0,.29,0,.67,.22,.87,.45,1.75,2.03,3.5,4.07,5.19,6.15,.53,.65,1.1,.93,1.96,.93,9.88-.02,19.76-.02,29.64-.01,2.59,0,4.43,1.35,4.98,3.66,.12,.52,.13,1.09,.13,1.63,0,11.72-.05,23.43,.04,35.14,.02,3.1-1.86,5.53-5.55,5.5-9.99-.08-19.98-.03-29.97-.03"/><path class="cls-5" d="M26.31,8.77c-.11-1.89-.17-3.64,1.15-5.07,.85-.93,1.88-1.52,3.15-1.54,2.16-.04,4.32-.04,6.48-.04,5.69,0,11.38,0,17.07-.01,.58,0,.96,.17,1.32,.61,1.65,2,3.36,3.96,5,5.98,.55,.68,1.17,.94,2.04,.94,9.82-.02,19.65,0,29.47-.02,2.11,0,3.84,.68,4.77,2.67,.34,.71,.5,1.58,.5,2.37,.02,12.01,0,24.03-.03,36.04,0,2.87-1.99,4.81-4.87,4.85-.6,0-1.19,0-1.88,0v-1.03c0-10.32,0-20.63,0-30.95,0-2.93-1.15-5.25-3.86-6.5-1.08-.5-2.37-.72-3.56-.73-9.63-.06-19.26-.04-28.89-.02-.57,0-.95-.14-1.32-.59-1.69-2.05-3.43-4.05-5.11-6.1-.5-.61-1.06-.86-1.83-.85-6.18,.02-12.37,.01-18.55,.01h-1.04Z"/><path class="cls-6" d="M11.04,24.05h1.04c6.18,0,12.37,0,18.55-.01,.78,0,1.34,.25,1.83,.85,1.69,2.05,3.43,4.05,5.11,6.1,.37,.45,.76,.6,1.32,.59,9.63-.02,19.26-.04,28.89,.02,1.2,0,2.49,.24,3.56,.73,2.71,1.25,3.86,3.58,3.86,6.5,0,10.32,0,20.63,0,30.95v1.03c.69,0,1.28,0,1.88,0,2.88-.04,4.86-1.98,4.87-4.85,.03-12.01,.04-24.02,.03-36.04,0-.79-.16-1.66-.5-2.37-.93-1.98-2.66-2.67-4.77-2.66-9.82,.01-19.65,0-29.47,.02-.87,0-1.48-.26-2.04-.94-1.64-2.02-3.35-3.98-5-5.98-.36-.44-.74-.61-1.32-.61-5.69,.02-11.38,0-17.07,.01-2.16,0-4.32,0-6.48,.04-1.27,.03-2.3,.62-3.15,1.54-1.32,1.43-1.25,3.18-1.15,5.07m26.58,55.57c9.99,0,19.98-.06,29.97,.03,3.7,.03,5.58-2.4,5.55-5.5-.09-11.71-.04-23.43-.04-35.14,0-.54,0-1.1-.13-1.63-.55-2.31-2.39-3.66-4.98-3.66-9.88,0-19.76-.01-29.64,.01-.85,0-1.42-.28-1.96-.93-1.7-2.08-3.44-4.12-5.19-6.15-.2-.23-.58-.45-.87-.45-7.77-.02-15.55-.05-23.32,0-2.99,.02-4.86,2.02-4.88,5.02,0,.88,0,1.75,0,2.63,0,13.49,0,26.99,.02,40.48,0,.88,.14,1.83,.49,2.62,.91,2,2.65,2.68,4.76,2.68,10.07-.01,20.14,0,30.22,0m37.66-6.72c-.05,1.02-.05,1.95-.16,2.86-.39,3.09-2.79,5.45-5.88,5.84-.41,.05-.82,.06-1.23,.06-20.25,0-40.51,0-60.76,0-2.94,0-5.23-1.17-6.51-3.87-.47-1-.7-2.21-.71-3.32C-.01,60.08,0,45.68,0,31.29c0-4.28,2.83-7.14,7.12-7.24,.54-.01,1.09,0,1.75,0,0-.59,0-1.13,0-1.66,.04-4.18,2.91-7.08,7.08-7.1,7.91-.02,15.82,0,23.73-.02,.67,0,1.13,.23,1.55,.73,1.65,1.98,3.35,3.91,4.96,5.92,.56,.69,1.14,.92,2.01,.92,9.55-.03,19.1-.01,28.66-.02,2.95,0,5.22,1.18,6.51,3.86,.46,.95,.69,2.1,.7,3.16,.05,12.02,.05,24.03,.02,36.05,0,4.1-2.89,6.91-7.09,7.01-.55,.01-1.09,0-1.72,0"/><path class="cls-4" d="M37.61,79.62c-10.07,0-20.15,0-30.22,0-2.11,0-3.85-.68-4.76-2.68-.36-.79-.49-1.74-.49-2.62-.03-13.49-.02-26.99-.02-40.48,0-.88,0-1.75,0-2.63,.02-3,1.89-5,4.88-5.02,7.77-.05,15.55-.02,23.32,0,.29,0,.67,.22,.87,.45,1.75,2.03,3.5,4.07,5.19,6.15,.53,.65,1.1,.93,1.96,.93,9.88-.02,19.76-.02,29.64-.01,2.59,0,4.43,1.35,4.98,3.66,.12,.52,.13,1.09,.13,1.63,0,11.71-.05,23.43,.04,35.14,.02,3.09-1.86,5.53-5.55,5.5-9.99-.08-19.98-.03-29.97-.03"/><path class="cls-3" d="M11.04,24.05c-.11-1.89-.17-3.64,1.15-5.07,.85-.93,1.88-1.52,3.15-1.54,2.16-.04,4.32-.04,6.48-.04,5.69,0,11.38,0,17.07-.01,.58,0,.96,.17,1.32,.61,1.66,2,3.36,3.96,5,5.98,.55,.68,1.17,.94,2.04,.94,9.82-.02,19.65,0,29.47-.02,2.11,0,3.84,.68,4.77,2.66,.34,.71,.5,1.58,.5,2.37,.02,12.01,0,24.02-.03,36.04,0,2.87-1.99,4.81-4.87,4.85-.6,0-1.19,0-1.88,0v-1.03c0-10.32,0-20.63,0-30.95,0-2.93-1.15-5.25-3.86-6.51-1.08-.5-2.37-.72-3.56-.73-9.63-.06-19.26-.04-28.89-.02-.57,0-.95-.14-1.32-.59-1.69-2.05-3.43-4.05-5.12-6.1-.5-.61-1.06-.86-1.83-.85-6.18,.02-12.37,0-18.55,0h-1.04Z"/></g></g></svg>